Sporniket-Nostalgie2-Faux-Console.sfdir
StartChar: uni0000
Encoding: 0 0 73
Width: 256
VWidth: 0
InSpiro: 1
Flags: HMW
LayerCount: 2
Fore
SplineSet
78 322 m 2
 78 314.602539062 78.1171875 307.143554688 79.7314453125 299.924804688 c 0
 81.345703125 292.705078125 84.4462890625 285.784179688 89.052734375 279.995117188 c 0
 93.6591796875 274.20703125 99.7041015625 269.594726562 106.447265625 266.552734375 c 0
 113.190429688 263.509765625 120.602539062 262 128 262 c 0
 135.397460938 262 142.809570312 263.509765625 149.552734375 266.552734375 c 0
 156.295898438 269.594726562 162.340820312 274.20703125 166.947265625 279.995117188 c 0
 171.553710938 285.784179688 174.654296875 292.705078125 176.268554688 299.924804688 c 0
 177.8828125 307.143554688 178 314.602539062 178 322 c 2
 178 442 l 2
 178 449.397460938 177.8828125 456.856445312 176.268554688 464.075195312 c 0
 174.654296875 471.294921875 171.553710938 478.215820312 166.947265625 484.004882812 c 0
 162.340820312 489.79296875 156.295898438 494.405273438 149.552734375 497.447265625 c 0
 142.809570312 500.490234375 135.397460938 502 128 502 c 0
 120.602539062 502 113.190429688 500.490234375 106.447265625 497.447265625 c 0
 99.7041015625 494.405273438 93.6591796875 489.79296875 89.052734375 484.004882812 c 0
 84.4462890625 478.215820312 81.345703125 471.294921875 79.7314453125 464.075195312 c 0
 78.1171875 456.856445312 78 449.397460938 78 442 c 2
 78 322 l 2
  Spiro
    78 322 ]
    128 262 o
    178 322 [
    178 442 ]
    128 502 o
    78 442 [
    0 0 z
  EndSpiro
EndSplineSet
EndChar
StartChar: exclam
Encoding: 33 33 55
Width: 256
VWidth: 0
InSpiro: 1
Flags: HMW
LayerCount: 2
Fore
SplineSet
72 54 m 0
 72 38.8154296875 78.2509765625 23.724609375 88.98828125 12.98828125 c 0
 99.724609375 2.2509765625 114.815429688 -4 130 -4 c 0
 145.184570312 -4 160.275390625 2.2509765625 171.01171875 12.98828125 c 0
 181.749023438 23.724609375 188 38.8154296875 188 54 c 0
 188 69.1845703125 181.749023438 84.275390625 171.01171875 95.01171875 c 0
 160.275390625 105.749023438 145.184570312 112 130 112 c 0
 114.815429688 112 99.724609375 105.749023438 88.98828125 95.01171875 c 0
 78.2509765625 84.275390625 72 69.1845703125 72 54 c 0
  Spiro
    72 54 o
    130 -4 o
    188 54 o
    130 112 o
    0 0 z
  EndSpiro
78 208 m 1
 178 208 l 1
 178 756 l 1
 78 756 l 1
 78 208 l 1
  Spiro
    78 208 v
    178 208 v
    178 756 v
    78 756 v
    0 0 z
  EndSpiro
EndSplineSet
EndChar
StartChar: quotesingle
Encoding: 39 39 59
Width: 256
VWidth: 0
InSpiro: 1
Flags: HMW
LayerCount: 2
Fore
SplineSet
78 404 m 1
 178 404 l 1
 178 756 l 1
 78 756 l 1
 78 404 l 1
  Spiro
    78 404 v
    178 404 v
    178 756 v
    78 756 v
    0 0 z
  EndSpiro
EndSplineSet
EndChar
StartChar: parenright
Encoding: 41 41 78
Width: 384
VWidth: 0
InSpiro: 1
Flags: HMW
LayerCount: 2
Fore
SplineSet
64 705 m 1
 128 641 l 2
 144.686523438 624.313476562 161.159179688 607.239257812 174.555664062 587.813476562 c 0
 187.952148438 568.38671875 198.2421875 546.849609375 205.133789062 524.280273438 c 0
 218.916992188 479.142578125 220 431.1953125 220 384 c 0
 220 336.8046875 218.916992188 288.857421875 205.133789062 243.719726562 c 0
 198.2421875 221.150390625 187.952148438 199.61328125 174.555664062 180.186523438 c 0
 161.159179688 160.760742188 144.686523438 143.686523438 128 127 c 2
 64 63 l 1
 64 0 l 1
 138 0 l 1
 179 40 l 2
 201.978515625 62.41796875 224.741210938 85.232421875 244.047851562 110.879882812 c 0
 263.35546875 136.528320312 279.185546875 164.80078125 290.748046875 194.749023438 c 0
 313.87109375 254.646484375 320.395507812 319.795898438 320 384 c 0
 319.606445312 447.899414062 312.381835938 512.587890625 289.252929688 572.15625 c 0
 266.124023438 631.723632812 224.184570312 681.815429688 179 727 c 2
 138 768 l 1
 64 768 l 1
 64 705 l 1
  Spiro
    64 705 v
    128 641 ]
    220 384 o
    128 127 [
    64 63 v
    64 0 v
    138 0 v
    179 40 ]
    320 384 o
    179 727 [
    138 768 v
    64 768 v
    0 0 z
  EndSpiro
EndSplineSet
EndChar
StartChar: period
Encoding: 46 46 64
Width: 256
VWidth: 0
InSpiro: 1
Flags: HMW
LayerCount: 2
Fore
SplineSet
78 56 m 2
 78 48.6025390625 78.1171875 41.1435546875 79.7314453125 33.9248046875 c 0
 81.345703125 26.705078125 84.4462890625 19.7841796875 89.052734375 13.9951171875 c 0
 93.6591796875 8.20703125 99.7041015625 3.5947265625 106.447265625 0.552734375 c 0
 113.190429688 -2.490234375 120.602539062 -4 128 -4 c 0
 135.397460938 -4 142.809570312 -2.490234375 149.552734375 0.552734375 c 0
 156.295898438 3.5947265625 162.340820312 8.20703125 166.947265625 13.9951171875 c 0
 171.553710938 19.7841796875 174.654296875 26.705078125 176.268554688 33.9248046875 c 0
 177.8828125 41.1435546875 178 48.6025390625 178 56 c 2
 178 176 l 2
 178 183.397460938 177.8828125 190.856445312 176.268554688 198.075195312 c 0
 174.654296875 205.294921875 171.553710938 212.215820312 166.947265625 218.004882812 c 0
 162.340820312 223.79296875 156.295898438 228.405273438 149.552734375 231.447265625 c 0
 142.809570312 234.490234375 135.397460938 236 128 236 c 0
 120.602539062 236 113.190429688 234.490234375 106.447265625 231.447265625 c 0
 99.7041015625 228.405273438 93.6591796875 223.79296875 89.052734375 218.004882812 c 0
 84.4462890625 212.215820312 81.345703125 205.294921875 79.7314453125 198.075195312 c 0
 78.1171875 190.856445312 78 183.397460938 78 176 c 2
 78 56 l 2
  Spiro
    78 56 ]
    128 -4 o
    178 56 [
    178 176 ]
    128 236 o
    78 176 [
    0 0 z
  EndSpiro
EndSplineSet
EndChar
StartChar: colon
Encoding: 58 58 65
Width: 256
VWidth: 0
InSpiro: 1
Flags: HMW
LayerCount: 2
Fore
SplineSet
78 56 m 2
 78 48.6025390625 78.1171875 41.1435546875 79.7314453125 33.9248046875 c 0
 81.345703125 26.705078125 84.4462890625 19.7841796875 89.052734375 13.9951171875 c 0
 93.6591796875 8.20703125 99.7041015625 3.5947265625 106.447265625 0.552734375 c 0
 113.190429688 -2.490234375 120.602539062 -4 128 -4 c 0
 135.397460938 -4 142.809570312 -2.490234375 149.552734375 0.552734375 c 0
 156.295898438 3.5947265625 162.340820312 8.20703125 166.947265625 13.9951171875 c 0
 171.553710938 19.7841796875 174.654296875 26.705078125 176.268554688 33.9248046875 c 0
 177.8828125 41.1435546875 178 48.6025390625 178 56 c 2
 178 176 l 2
 178 183.397460938 177.8828125 190.856445312 176.268554688 198.075195312 c 0
 174.654296875 205.294921875 171.553710938 212.215820312 166.947265625 218.004882812 c 0
 162.340820312 223.79296875 156.295898438 228.405273438 149.552734375 231.447265625 c 0
 142.809570312 234.490234375 135.397460938 236 128 236 c 0
 120.602539062 236 113.190429688 234.490234375 106.447265625 231.447265625 c 0
 99.7041015625 228.405273438 93.6591796875 223.79296875 89.052734375 218.004882812 c 0
 84.4462890625 212.215820312 81.345703125 205.294921875 79.7314453125 198.075195312 c 0
 78.1171875 190.856445312 78 183.397460938 78 176 c 2
 78 56 l 2
  Spiro
    78 56 ]
    128 -4 o
    178 56 [
    178 176 ]
    128 236 o
    78 176 [
    0 0 z
  EndSpiro
78 464 m 2
 78 456.602539062 78.1171875 449.143554688 79.7314453125 441.924804688 c 0
 81.345703125 434.705078125 84.4462890625 427.784179688 89.052734375 421.995117188 c 0
 93.6591796875 416.20703125 99.7041015625 411.594726562 106.447265625 408.552734375 c 0
 113.190429688 405.509765625 120.602539062 404 128 404 c 0
 135.397460938 404 142.809570312 405.509765625 149.552734375 408.552734375 c 0
 156.295898438 411.594726562 162.340820312 416.20703125 166.947265625 421.995117188 c 0
 171.553710938 427.784179688 174.654296875 434.705078125 176.268554688 441.924804688 c 0
 177.8828125 449.143554688 178 456.602539062 178 464 c 2
 178 584 l 2
 178 591.397460938 177.8828125 598.856445312 176.268554688 606.075195312 c 0
 174.654296875 613.294921875 171.553710938 620.215820312 166.947265625 626.004882812 c 0
 162.340820312 631.79296875 156.295898438 636.405273438 149.552734375 639.447265625 c 0
 142.809570312 642.490234375 135.397460938 644 128 644 c 0
 120.602539062 644 113.190429688 642.490234375 106.447265625 639.447265625 c 0
 99.7041015625 636.405273438 93.6591796875 631.79296875 89.052734375 626.004882812 c 0
 84.4462890625 620.215820312 81.345703125 613.294921875 79.7314453125 606.075195312 c 0
 78.1171875 598.856445312 78 591.397460938 78 584 c 2
 78 464 l 2
  Spiro
    78 464 ]
    128 404 o
    178 464 [
    178 584 ]
    128 644 o
    78 584 [
    0 0 z
  EndSpiro
EndSplineSet
EndChar
StartChar: semicolon
Encoding: 59 59 66
Width: 256
VWidth: 0
InSpiro: 1
Flags: HMW
LayerCount: 2
Fore
SplineSet
92 440 m 2
 92 432.602539062 92.1171875 425.143554688 93.7314453125 417.924804688 c 0
 95.345703125 410.705078125 98.4462890625 403.784179688 103.052734375 397.995117188 c 0
 107.659179688 392.20703125 113.704101562 387.594726562 120.447265625 384.552734375 c 0
 127.190429688 381.509765625 134.602539062 380 142 380 c 0
 149.397460938 380 156.809570312 381.509765625 163.552734375 384.552734375 c 0
 170.295898438 387.594726562 176.340820312 392.20703125 180.947265625 397.995117188 c 0
 185.553710938 403.784179688 188.654296875 410.705078125 190.268554688 417.924804688 c 0
 191.8828125 425.143554688 192 432.602539062 192 440 c 2
 192 584 l 2
 192 591.397460938 191.8828125 598.856445312 190.268554688 606.075195312 c 0
 188.654296875 613.294921875 185.553710938 620.215820312 180.947265625 626.004882812 c 0
 176.340820312 631.79296875 170.295898438 636.405273438 163.552734375 639.447265625 c 0
 156.809570312 642.490234375 149.397460938 644 142 644 c 0
 134.602539062 644 127.190429688 642.490234375 120.447265625 639.447265625 c 0
 113.704101562 636.405273438 107.659179688 631.79296875 103.052734375 626.004882812 c 0
 98.4462890625 620.215820312 95.345703125 613.294921875 93.7314453125 606.075195312 c 0
 92.1171875 598.856445312 92 591.397460938 92 584 c 2
 92 440 l 2
  Spiro
    92 440 ]
    142 380 o
    192 440 [
    192 584 ]
    142 644 o
    92 584 [
    0 0 z
  EndSpiro
192 200 m 2
 192 207.397460938 191.8828125 214.856445312 190.268554688 222.075195312 c 0
 188.654296875 229.294921875 185.553710938 236.215820312 180.947265625 242.004882812 c 0
 176.340820312 247.79296875 170.295898438 252.405273438 163.552734375 255.447265625 c 0
 156.809570312 258.490234375 149.397460938 260 142 260 c 0
 134.602539062 260 127.190429688 258.490234375 120.447265625 255.447265625 c 0
 113.704101562 252.405273438 107.659179688 247.79296875 103.052734375 242.004882812 c 0
 98.4462890625 236.215820312 95.345703125 229.294921875 93.7314453125 222.075195312 c 0
 92.1171875 214.856445312 92 207.397460938 92 200 c 2
 92 168 l 2
 92 146.557617188 91.4482421875 124.975585938 87 104 c 0
 81.90625 79.98046875 71.986328125 56.8671875 57.0791015625 37.35546875 c 0
 42.1728515625 17.8447265625 22.3974609375 2.0615234375 0 -8 c 1
 0 -108 l 1
 49.498046875 -96.1650390625 94.85546875 -67.96484375 127.734375 -29.1171875 c 0
 160.612304688 9.73046875 180.591796875 58.6484375 188 109 c 0
 191.454101562 132.475585938 192 156.271484375 192 180 c 2
 192 200 l 2
  Spiro
    192 200 ]
    142 260 o
    92 200 [
    92 168 ]
    87 104 o
    0 -8 v
    0 -108 v
    188 109 o
    192 180 [
    0 0 z
  EndSpiro
EndSplineSet
EndChar
StartChar: at
Encoding: 64 64 92
Width: 576
VWidth: 0
InSpiro: 1
Flags: HMW
LayerCount: 2
Fore
SplineSet
337 460 m 0
 344.758789062 459.883789062 352.311523438 456.360351562 357.75 450.826171875 c 0
 363.189453125 445.291992188 366.5546875 437.969726562 368.31640625 430.413085938 c 0
 371.838867188 415.298828125 369.975585938 399.518554688 370 384 c 0
 370.025390625 367.607421875 372.315429688 351.005859375 369.15234375 334.920898438 c 0
 367.5703125 326.87890625 364.305664062 319.006835938 358.727539062 313.001953125 c 0
 353.1484375 306.997070312 345.1953125 303.12109375 337 303 c 0
 328.731445312 302.877929688 320.595703125 306.590820312 314.849609375 312.538085938 c 0
 309.103515625 318.486328125 305.694335938 326.392578125 304.0234375 334.4921875 c 0
 300.680664062 350.690429688 302.970703125 367.459960938 303 384 c 0
 303.028320312 399.666015625 301.174804688 415.615234375 304.879882812 430.836914062 c 0
 306.732421875 438.447265625 310.240234375 445.799804688 315.840820312 451.275390625 c 0
 321.44140625 456.750976562 329.16796875 460.1171875 337 460 c 0
  Spiro
    337 460 o
    370 384 o
    337 303 o
    303 384 o
    0 0 z
  EndSpiro
225 384 m 0
 225 353.125976562 227.943359375 321.70703125 239.481445312 293.0703125 c 0
 245.250976562 278.750976562 253.34765625 265.266601562 264.08203125 254.172851562 c 0
 274.817382812 243.080078125 288.229492188 234.486328125 303 230 c 0
 321.923828125 224.251953125 342.817382812 225.53125 361.0625 233.166015625 c 0
 379.306640625 240.801757812 394.717773438 254.44921875 405.930664062 270.7421875 c 0
 417.142578125 287.03515625 424.362304688 305.83984375 428.787109375 325.116210938 c 0
 433.212890625 344.392578125 435 364.221679688 435 384 c 0
 435 403.778320312 433.212890625 423.607421875 428.787109375 442.883789062 c 0
 424.362304688 462.16015625 417.142578125 480.96484375 405.930664062 497.2578125 c 0
 394.717773438 513.55078125 379.306640625 527.198242188 361.0625 534.833984375 c 0
 342.817382812 542.46875 321.923828125 543.748046875 303 538 c 0
 288.229492188 533.513671875 274.817382812 524.919921875 264.08203125 513.827148438 c 0
 253.34765625 502.733398438 245.250976562 489.249023438 239.481445312 474.9296875 c 0
 227.943359375 446.29296875 225 414.874023438 225 384 c 0
  Spiro
    225 384 o
    303 230 o
    435 384 o
    303 538 o
    0 0 z
  EndSpiro
532 192 m 1
 432 192 l 1
 432.71875 168.467773438 423.465820312 144.8203125 407.069335938 127.926757812 c 0
 390.671875 111.032226562 367.513671875 101.182617188 344 100 c 0
 321.236328125 98.85546875 298.474609375 105.495117188 278.646484375 116.735351562 c 0
 258.818359375 127.975585938 241.676757812 143.5625 227 161 c 0
 203.951171875 188.383789062 186.521484375 220.499023438 176.15625 254.758789062 c 0
 165.791992188 289.017578125 164 325.20703125 164 361 c 2
 164 405 l 2
 164 440.895507812 166.591796875 477.126953125 177.490234375 511.328125 c 0
 188.389648438 545.528320312 204.9609375 577.916992188 226 607 c 0
 237.344726562 622.682617188 250.374023438 637.375976562 266.142578125 648.599609375 c 0
 281.911132812 659.82421875 300.659179688 667.241210938 320 668 c 0
 344.609375 668.96484375 368.938476562 658.743164062 387.337890625 642.372070312 c 0
 405.737304688 626.000976562 418.815429688 604.423828125 429 582 c 0
 439.442382812 559.009765625 447.178710938 534.786132812 452 510 c 0
 459.966796875 469.044921875 458.943359375 426.26171875 448 386 c 0
 445.581054688 386.470703125 443.275390625 387.5078125 441.313476562 388.999023438 c 0
 439.3515625 390.491210938 437.7421875 392.431640625 436.5859375 394.608398438 c 0
 435.4296875 396.784179688 434.73046875 399.185546875 434.374023438 401.624023438 c 0
 434.016601562 404.061523438 434 406.536132812 434 409 c 2
 434 476 l 1
 370 476 l 1
 370 290 l 2
 370 281.711914062 370.081054688 273.360351562 371.762695312 265.245117188 c 0
 373.4453125 257.12890625 376.764648438 249.275390625 381.999023438 242.848632812 c 0
 387.232421875 236.420898438 394.342773438 231.521484375 402.251953125 229.04296875 c 0
 410.161132812 226.564453125 418.770507812 226.515625 426.787109375 228.620117188 c 0
 434.8046875 230.724609375 442.197265625 234.91796875 448.497070312 240.303710938 c 0
 454.796875 245.689453125 460.036132812 252.234375 464.48828125 259.225585938 c 0
 473.393554688 273.20703125 479.438476562 288.77734375 486 304 c 0
 494.091796875 322.7734375 503.083984375 341.15234375 511 360 c 0
 524.188476562 391.401367188 532.077148438 424.995117188 534 459 c 0
 537.580078125 522.30859375 526.487304688 587.400390625 496 643 c 0
 471.842773438 687.0546875 434.79296875 724.241210938 390 747 c 0
 360.84765625 761.811523438 328.204101562 770.364257812 295.524414062 769.240234375 c 0
 262.844726562 768.116210938 230.793945312 756.743164062 204 738 c 0
 181.525390625 722.278320312 162.498046875 702.12109375 145 681 c 0
 126.918945312 659.174804688 110.189453125 636.0859375 97 611 c 0
 78.986328125 576.73828125 69.0517578125 538.592773438 65.4375 500.053710938 c 0
 61.8232421875 461.513671875 63.234375 422.701171875 64 384 c 0
 64.7578125 345.6953125 64.783203125 307.325195312 68.12109375 269.159179688 c 0
 71.4599609375 230.9921875 79.1328125 192.872070312 95 158 c 0
 105.833007812 134.19140625 120.182617188 112.034179688 137 92 c 0
 161.221679688 63.1455078125 190.530273438 38.2919921875 224 21 c 0
 257.252929688 3.8203125 294.766601562 -5.388671875 332.176757812 -4.1845703125 c 0
 369.5859375 -2.9794921875 406.614257812 8.6064453125 438 29 c 0
 492.58984375 64.4697265625 528.591796875 126.98828125 532 192 c 1
  Spiro
    532 192 v
    432 192 v
    344 100 o
    227 161 o
    164 361 [
    164 405 ]
    226 607 o
    320 668 o
    429 582 o
    452 510 o
    448 386 v
    434 409 [
    434 476 v
    370 476 v
    370 290 ]
    486 304 o
    511 360 o
    534 459 o
    496 643 o
    390 747 o
    204 738 o
    145 681 o
    97 611 o
    64 384 o
    95 158 o
    137 92 o
    224 21 o
    438 29 o
    0 0 z
  EndSpiro
EndSplineSet
EndChar
StartChar: K
Encoding: 75 75 44
Width: 512
VWidth: 0
InSpiro: 1
Flags: HMW
LayerCount: 2
Fore
SplineSet
340 756 m 1
 340.000976562 741.811523438 337.897460938 727.642578125 334 714 c 0
 327.18359375 690.138671875 315.267578125 668.110351562 304 646 c 2
 251 542 l 2
 247.331054688 534.799804688 243.495117188 527.608398438 238.318359375 521.403320312 c 0
 233.141601562 515.197265625 226.69140625 510.046875 219.439453125 506.481445312 c 0
 212.1875 502.916015625 204.233398438 500.924804688 196.209960938 499.959960938 c 0
 188.186523438 498.99609375 180.081054688 499 172 499 c 2
 128 499 l 1
 128 397 l 1
 193 397 l 2
 220.18359375 397 248.286132812 396.592773438 273.328125 407.168945312 c 0
 285.849609375 412.456054688 297.190429688 420.51953125 306.233398438 430.666992188 c 0
 315.276367188 440.814453125 321.821289062 452.893554688 328 465 c 2
 402 610 l 2
 415.571289062 636.591796875 428.118164062 663.94921875 435 693 c 0
 439.8828125 713.611328125 442.259765625 734.819335938 442 756 c 1
 340 756 l 1
  Spiro
    340 756 v
    334 714 o
    304 646 [
    251 542 ]
    172 499 [
    128 499 v
    128 397 v
    193 397 ]
    328 465 [
    402 610 ]
    435 693 o
    442 756 v
    0 0 z
  EndSpiro
512 0 m 1
 512.327148438 21.1826171875 509.935546875 42.3984375 505 63 c 0
 498.045898438 92.0283203125 485.4609375 119.357421875 472 146 c 2
 328 431 l 2
 321.8671875 443.138671875 315.359375 455.250976562 306.325195312 465.41796875 c 0
 297.291015625 475.583984375 285.93359375 483.647460938 273.396484375 488.91796875 c 0
 248.321289062 499.4609375 220.200195312 499 193 499 c 2
 128 499 l 1
 128 397 l 1
 172 397 l 2
 180.086914062 397 188.196289062 397.006835938 196.2265625 396.0546875 c 0
 204.256835938 395.1015625 212.220703125 393.12890625 219.484375 389.573242188 c 0
 226.747070312 386.018554688 233.20703125 380.868164062 238.377929688 374.650390625 c 0
 243.549804688 368.43359375 247.359375 361.220703125 251 354 c 2
 374 110 l 2
 385.168945312 87.84375 397.126953125 65.841796875 404 42 c 0
 407.930664062 28.365234375 410.041015625 14.1904296875 410 0 c 1
 512 0 l 1
  Spiro
    512 0 v
    505 63 o
    472 146 [
    328 431 ]
    193 499 [
    128 499 v
    128 397 v
    172 397 ]
    251 354 [
    374 110 ]
    404 42 o
    410 0 v
    0 0 z
  EndSpiro
64 756 m 1
 64 0 l 1
 164 0 l 1
 164 756 l 1
 64 756 l 1
  Spiro
    64 756 v
    64 0 v
    164 0 v
    164 756 v
    0 0 z
  EndSpiro
EndSplineSet
EndChar
StartChar: R
Encoding: 82 82 45
Width: 576
VWidth: 0
InSpiro: 1
Flags: HMW
LayerCount: 2
Fore
SplineSet
127 432 m 1
 127 332 l 1
 241 332 l 2
 269.639648438 332 298.68359375 332.793945312 326.083007812 341.12890625 c 0
 353.482421875 349.46484375 378.6484375 365.130859375 397.91796875 386.318359375 c 0
 417.1875 407.506835938 430.530273438 433.671875 438.661132812 461.1328125 c 0
 446.791015625 488.594726562 450.09375 517.360351562 450 546 c 0
 449.907226562 574.203125 446.509765625 602.512695312 438.340820312 629.506835938 c 0
 430.172851562 656.500976562 416.862304688 682.1796875 397.76171875 702.9296875 c 0
 378.661132812 723.6796875 353.80859375 738.974609375 326.802734375 747.103515625 c 0
 299.796875 755.232421875 271.203125 756 243 756 c 2
 64 756 l 1
 64 656 l 1
 240 656 l 2
 254.845703125 656 269.892578125 655.6015625 284.12109375 651.3671875 c 0
 298.349609375 647.131835938 311.46875 639.162109375 321.611328125 628.322265625 c 0
 331.75390625 617.481445312 338.896484375 604.04296875 343.354492188 589.8828125 c 0
 347.8125 575.72265625 349.77734375 560.84375 350 546 c 0
 350.228515625 530.801757812 348.640625 515.513671875 344.465820312 500.8984375 c 0
 340.291015625 486.283203125 333.321289062 472.333007812 323.165039062 461.0234375 c 0
 313.009765625 449.71484375 299.681640625 441.338867188 285.149414062 436.881835938 c 0
 270.618164062 432.424804688 255.200195312 432 240 432 c 2
 127 432 l 1
  Spiro
    127 432 v
    127 332 v
    241 332 ]
    450 546 o
    243 756 [
    64 756 v
    64 656 v
    240 656 ]
    350 546 o
    240 432 [
    0 0 z
  EndSpiro
512 0 m 1
 512.327148438 21.1826171875 509.935546875 42.3984375 505 63 c 0
 498.045898438 92.0283203125 485.4609375 119.357421875 472 146 c 2
 328 431 l 1
 251 354 l 1
 374 110 l 2
 385.168945312 87.84375 397.126953125 65.841796875 404 42 c 0
 407.930664062 28.365234375 410.041015625 14.1904296875 410 0 c 1
 512 0 l 1
  Spiro
    512 0 v
    505 63 o
    472 146 [
    328 431 v
    251 354 v
    374 110 ]
    404 42 o
    410 0 v
    0 0 z
  EndSpiro
64 756 m 1
 64 0 l 1
 164 0 l 1
 164 756 l 1
 64 756 l 1
  Spiro
    64 756 v
    64 0 v
    164 0 v
    164 756 v
    0 0 z
  EndSpiro
EndSplineSet
EndChar
StartChar: W
Encoding: 87 87 53
Width: 574
VWidth: 0
InSpiro: 1
Flags: HMW
LayerCount: 2
Fore
SplineSet
412 756 m 1
 512 756 l 1
 512 44 l 2
 512 37.193359375 511.88671875 30.3095703125 510.158203125 23.7265625 c 0
 508.4296875 17.1435546875 505.06640625 10.9345703125 500.147460938 6.23046875 c 0
 495.229492188 1.525390625 488.849609375 -1.591796875 482.140625 -2.7421875 c 0
 475.432617188 -3.892578125 468.465820312 -3.1259765625 462 -1 c 0
 451.185546875 2.5556640625 441.875976562 9.7041015625 433.875 17.802734375 c 0
 425.875 25.900390625 418.962890625 34.994140625 412 44 c 2
 262 238 l 2
 253.052734375 249.572265625 245.053710938 262.190429688 241.478515625 276.375 c 0
 237.90234375 290.55859375 238 305.372070312 238 320 c 2
 238 427 l 1
 338 427 l 1
 338 352 l 2
 338 338.561523438 338.530273438 324.935546875 342.608398438 312.130859375 c 0
 346.686523438 299.325195312 354.162109375 287.916992188 362 277 c 2
 390 238 l 2
 390.782226562 236.911132812 391.591796875 235.834960938 392.55078125 234.8984375 c 0
 393.510742188 233.961914062 394.600585938 233.165039062 395.75390625 232.48046875 c 0
 398.059570312 231.11328125 400.517578125 230.013671875 403 229 c 0
 404.008789062 228.587890625 405.045898438 228.221679688 406.125 228.07421875 c 0
 407.205078125 227.92578125 408.3359375 228.018554688 409.322265625 228.482421875 c 0
 410.307617188 228.946289062 411.10546875 229.787109375 411.53125 230.790039062 c 0
 411.95703125 231.79296875 412 232.91015625 412 234 c 2
 412 756 l 1
  Spiro
    412 756 v
    512 756 v
    512 44 ]
    462 -1 o
    412 44 [
    262 238 ]
    238 320 [
    238 427 v
    338 427 v
    338 352 ]
    362 277 [
    390 238 ]
    403 229 o
    412 234 [
    0 0 z
  EndSpiro
116 -1 m 1024
  Spiro
    116 -1 {
    0 0 z
  EndSpiro
164 234 m 2
 164 232.91015625 164.04296875 231.79296875 164.46875 230.790039062 c 0
 164.89453125 229.787109375 165.692382812 228.946289062 166.677734375 228.482421875 c 0
 167.6640625 228.018554688 168.794921875 227.92578125 169.875 228.07421875 c 0
 170.954101562 228.221679688 171.991210938 228.587890625 173 229 c 0
 175.482421875 230.013671875 177.940429688 231.11328125 180.24609375 232.48046875 c 0
 181.399414062 233.165039062 182.489257812 233.961914062 183.44921875 234.8984375 c 0
 184.408203125 235.834960938 185.217773438 236.911132812 186 238 c 2
 214 277 l 2
 221.837890625 287.916992188 229.313476562 299.325195312 233.391601562 312.130859375 c 0
 237.469726562 324.935546875 238 338.561523438 238 352 c 2
 238 427 l 1
 338 427 l 1
 338 320 l 2
 338 305.372070312 338.09765625 290.55859375 334.521484375 276.375 c 0
 330.946289062 262.190429688 322.947265625 249.572265625 314 238 c 2
 164 44 l 2
 157.037109375 34.994140625 150.125 25.900390625 142.125 17.802734375 c 0
 134.124023438 9.7041015625 124.814453125 2.5556640625 114 -1 c 0
 107.534179688 -3.1259765625 100.567382812 -3.892578125 93.859375 -2.7421875 c 0
 87.150390625 -1.591796875 80.7705078125 1.525390625 75.8525390625 6.23046875 c 0
 70.93359375 10.9345703125 67.5703125 17.1435546875 65.841796875 23.7265625 c 0
 64.11328125 30.3095703125 64 37.193359375 64 44 c 2
 64 756 l 1
 164 756 l 1
 164 234 l 2
  Spiro
    164 234 ]
    173 229 o
    186 238 [
    214 277 ]
    238 352 [
    238 427 v
    338 427 v
    338 320 ]
    314 238 [
    164 44 ]
    114 -1 o
    64 44 [
    64 756 v
    164 756 v
    0 0 z
  EndSpiro
EndSplineSet
EndChar
StartChar: bracketleft
Encoding: 91 91 68
Width: 384
VWidth: 0
InSpiro: 1
Flags: HMW
LayerCount: 2
Fore
SplineSet
78 768 m 1
 78 0 l 1
 296 0 l 1
 296 100 l 1
 178 100 l 1
 178 668 l 1
 296 668 l 1
 296 768 l 1
 78 768 l 1
  Spiro
    78 768 v
    78 0 v
    296 0 v
    296 100 v
    178 100 v
    178 668 v
    296 668 v
    296 768 v
    0 0 z
  EndSpiro
EndSplineSet
EndChar
StartChar: asciicircum
Encoding: 94 94 70
Width: 576
VWidth: 0
InSpiro: 1
Flags: HMW
LayerCount: 2
Fore
SplineSet
64 320 m 1
 62.6142578125 330.954101562 63.28125 342.143554688 65.7451171875 352.90625 c 0
 68.208984375 363.669921875 72.5234375 373.90625 77 384 c 2
 238 747 l 2
 243.95703125 760.430664062 248.323242188 774.55078125 254.803710938 787.736328125 c 0
 258.043945312 794.330078125 262.178710938 800.612304688 267.817382812 805.3203125 c 0
 273.45703125 810.028320312 280.653320312 812.98046875 288 813 c 0
 295.354492188 813.01953125 302.575195312 810.099609375 308.237304688 805.40625 c 0
 313.8984375 800.711914062 318.05078125 794.428710938 321.294921875 787.828125 c 0
 327.783203125 774.627929688 332.098632812 760.47265625 338 747 c 2
 497 384 l 2
 501.440429688 373.862304688 505.741210938 363.61328125 508.490234375 352.892578125 c 0
 511.239257812 342.172851562 512.48828125 331.056640625 512 320 c 1
 412 320 l 1
 411.682617188 330.739257812 408.194335938 341.109375 404 351 c 2
 323 542 l 2
 319.315429688 550.688476562 316.126953125 559.685546875 310.978515625 567.594726562 c 0
 308.403320312 571.549804688 305.223632812 575.170898438 301.303710938 577.797851562 c 0
 297.383789062 580.424804688 292.71875 581.98828125 288 582 c 0
 283.276367188 582.01171875 278.59765625 580.467773438 274.666015625 577.849609375 c 0
 270.733398438 575.232421875 267.541992188 571.612304688 264.963867188 567.653320312 c 0
 259.80859375 559.736328125 256.650390625 550.71484375 253 542 c 2
 173 351 l 2
 168.827148438 341.036132812 165.200195312 330.735351562 164 320 c 1
 64 320 l 1
  Spiro
    64 320 v
    77 384 [
    238 747 ]
    288 813 o
    338 747 [
    497 384 ]
    512 320 v
    412 320 v
    404 351 [
    323 542 ]
    288 582 o
    253 542 [
    173 351 ]
    164 320 v
    0 0 z
  EndSpiro
EndSplineSet
EndChar
StartChar: underscore
Encoding: 95 95 71
Width: 576
VWidth: 0
InSpiro: 1
Flags: HMW
LayerCount: 2
Fore
SplineSet
504 14 m 1
 504 114 l 1
 72 114 l 1
 72 14 l 1
 504 14 l 1
  Spiro
    504 14 v
    504 114 v
    72 114 v
    72 14 v
    0 0 z
  EndSpiro
EndSplineSet
EndChar
StartChar: a
Encoding: 97 97 18
Width: 448
VWidth: 0
InSpiro: 1
Flags: HMW
AnchorPoint: "top" 192 576 basechar 0
LayerCount: 2
Fore
SplineSet
282 321 m 1
 382 321 l 1
 382 0 l 1
 282 0 l 1
 282 321 l 1
  Spiro
    282 321 v
    382 321 v
    382 0 v
    282 0 v
    0 0 z
  EndSpiro
62 450 m 1
 41 557 l 1
 87 567 l 2
 137.67578125 578.016601562 189.897460938 588.826171875 241 580 c 0
 262.364257812 576.310546875 283.22265625 569.168945312 301.83984375 558.059570312 c 0
 320.458007812 546.950195312 336.692382812 531.848632812 349 514 c 0
 364.342773438 491.749023438 373.334960938 465.552734375 377.66796875 438.874023438 c 0
 382.000976562 412.1953125 382 385.028320312 382 358 c 2
 382 316 l 1
 282 316 l 1
 282 352 l 2
 282 370.069335938 282.071289062 388.282226562 278.557617188 406.005859375 c 0
 275.04296875 423.729492188 267.5 440.952148438 255 454 c 0
 244.514648438 464.944335938 230.818359375 472.658203125 216.158203125 476.5078125 c 0
 201.498046875 480.356445312 186.048828125 480.481445312 171.015625 478.548828125 c 0
 140.94921875 474.684570312 112.147460938 464.328125 83 456 c 2
 62 450 l 1
  Spiro
    62 450 v
    41 557 v
    87 567 ]
    241 580 o
    349 514 o
    382 358 [
    382 316 v
    282 316 v
    282 352 ]
    255 454 o
    83 456 [
    0 0 z
  EndSpiro
1 129 m 0
 -10.1005859375 169.530273438 -8.462890625 213.544921875 6 253 c 0
 19.412109375 289.586914062 44.701171875 321.92578125 77.78515625 342.515625 c 0
 110.869140625 363.104492188 150.3203125 370.275390625 189 375 c 2
 320 391 l 1
 320 292 l 1
 194 276 l 2
 181.262695312 274.3828125 168.442382812 272.380859375 156.534179688 267.579101562 c 0
 144.625976562 262.77734375 133.765625 255.381835938 125 246 c 0
 115.751953125 236.102539062 108.786132812 224.080078125 104.823242188 211.126953125 c 0
 100.859375 198.174804688 99.927734375 184.28125 102.322265625 170.948242188 c 0
 104.716796875 157.616210938 110.463867188 144.891601562 118.943359375 134.328125 c 0
 127.423828125 123.765625 138.591796875 115.432617188 151 110 c 0
 163.5 104.526367188 177.166992188 101.9765625 190.807617188 101.606445312 c 0
 204.44921875 101.235351562 218.075195312 102.966796875 231.470703125 105.571289062 c 0
 258.26171875 110.779296875 284.48828125 118.51953125 311 125 c 2
 356 136 l 1
 373 39 l 1
 347 32 l 2
 298.482421875 18.9375 249.93359375 4.2529296875 199.833007812 0.4462890625 c 0
 174.783203125 -1.45703125 149.354492188 -0.2841796875 124.984375 5.8193359375 c 0
 100.615234375 11.9228515625 77.43359375 23.0791015625 58 39 c 0
 30.0869140625 61.8681640625 10.53125 94.197265625 1 129 c 0
  Spiro
    1 129 o
    6 253 o
    189 375 [
    320 391 v
    320 292 v
    194 276 ]
    125 246 o
    151 110 o
    311 125 [
    356 136 v
    373 39 v
    347 32 ]
    58 39 o
    0 0 z
  EndSpiro
EndSplineSet
EndChar
StartChar: f
Encoding: 102 102 6
Width: 384
VWidth: 0
InSpiro: 1
Flags: HMW
LayerCount: 2
Fore
SplineSet
-36 502 m 1
 300 502 l 1
 300 402 l 1
 -36 402 l 1
 -36 502 l 1
  Spiro
    -36 502 v
    300 502 v
    300 402 v
    -36 402 v
    0 0 z
  EndSpiro
292 664 m 1
 273.935546875 670.91015625 253.684570312 671.993164062 235 667 c 0
 210.401367188 660.42578125 189.05078125 642.967773438 177.278320312 620.389648438 c 0
 171.392578125 609.100585938 167.788085938 596.704101562 165.94140625 584.107421875 c 0
 164.09375 571.510742188 164 558.731445312 164 546 c 2
 164 0 l 1
 64 0 l 1
 64 522 l 2
 64 549.3984375 64.2685546875 576.938476562 68.923828125 603.938476562 c 0
 73.578125 630.938476562 82.625 657.3203125 96.9443359375 680.6796875 c 0
 125.58203125 727.397460938 175.793945312 759.975585938 230 768 c 0
 258.319335938 772.192382812 287.54296875 770.1015625 315 762 c 1
 292 664 l 1
  Spiro
    292 664 v
    235 667 o
    164 546 [
    164 0 v
    64 0 v
    64 522 ]
    230 768 o
    315 762 v
    0 0 z
  EndSpiro
EndSplineSet
EndChar
StartChar: i
Encoding: 105 105 5
Width: 384
VWidth: 0
InSpiro: 1
Flags: HMW
LayerCount: 2
Fore
SplineSet
92 576 m 1
 242 576 l 1
 242 476 l 1
 92 476 l 1
 92 576 l 1
  Spiro
    92 576 v
    242 576 v
    242 476 v
    92 476 v
    0 0 z
  EndSpiro
92 100 m 1
 292 100 l 1
 292 0 l 1
 92 0 l 1
 92 100 l 1
  Spiro
    92 100 v
    292 100 v
    292 0 v
    92 0 v
    0 0 z
  EndSpiro
136 702 m 0
 136 717.184570312 142.250976562 732.275390625 152.98828125 743.01171875 c 0
 163.724609375 753.749023438 178.815429688 760 194 760 c 0
 209.184570312 760 224.275390625 753.749023438 235.01171875 743.01171875 c 0
 245.749023438 732.275390625 252 717.184570312 252 702 c 0
 252 686.815429688 245.749023438 671.724609375 235.01171875 660.98828125 c 0
 224.275390625 650.250976562 209.184570312 644 194 644 c 0
 178.815429688 644 163.724609375 650.250976562 152.98828125 660.98828125 c 0
 142.250976562 671.724609375 136 686.815429688 136 702 c 0
  Spiro
    136 702 o
    194 760 o
    252 702 o
    194 644 o
    0 0 z
  EndSpiro
142 576 m 1
 242 576 l 1
 242 0 l 1
 142 0 l 1
 142 576 l 1
  Spiro
    142 576 v
    242 576 v
    242 0 v
    142 0 v
    0 0 z
  EndSpiro
EndSplineSet
EndChar
StartChar: j
Encoding: 106 106 20
Width: 256
VWidth: 0
InSpiro: 1
Flags: HMW
LayerCount: 2
Fore
SplineSet
92 128 m 1
 192 128 l 1
 192 576 l 1
 92 576 l 1
 92 128 l 1
  Spiro
    92 128 v
    192 128 v
    192 576 v
    92 576 v
    0 0 z
  EndSpiro
83 702 m 0
 83 717.184570312 89.2509765625 732.275390625 99.98828125 743.01171875 c 0
 110.724609375 753.749023438 125.815429688 760 141 760 c 0
 156.184570312 760 171.275390625 753.749023438 182.01171875 743.01171875 c 0
 192.749023438 732.275390625 199 717.184570312 199 702 c 0
 199 686.815429688 192.749023438 671.724609375 182.01171875 660.98828125 c 0
 171.275390625 650.250976562 156.184570312 644 141 644 c 0
 125.815429688 644 110.724609375 650.250976562 99.98828125 660.98828125 c 0
 89.2509765625 671.724609375 83 686.815429688 83 702 c 0
  Spiro
    83 702 o
    141 760 o
    199 702 o
    141 644 o
    0 0 z
  EndSpiro
-128 0 m 1
 -149 -107 l 1
 -103 -117 l 2
 -52.32421875 -128.016601562 -0.1025390625 -138.826171875 51 -130 c 0
 72.3642578125 -126.310546875 93.22265625 -119.168945312 111.83984375 -108.059570312 c 0
 130.458007812 -96.9501953125 146.692382812 -81.8486328125 159 -64 c 0
 174.342773438 -41.7490234375 183.334960938 -15.552734375 187.66796875 11.1259765625 c 0
 192.000976562 37.8046875 192 64.9716796875 192 92 c 2
 192 128 l 1
 92 128 l 1
 92 98 l 2
 92 79.9306640625 92.0712890625 61.7177734375 88.5576171875 43.994140625 c 0
 85.04296875 26.2705078125 77.5 9.0478515625 65 -4 c 0
 54.5146484375 -14.9443359375 40.818359375 -22.658203125 26.158203125 -26.5078125 c 0
 11.498046875 -30.3564453125 -3.951171875 -30.4814453125 -18.984375 -28.548828125 c 0
 -49.05078125 -24.6845703125 -77.8525390625 -14.328125 -107 -6 c 2
 -128 0 l 1
  Spiro
    -128 0 v
    -149 -107 v
    -103 -117 ]
    51 -130 o
    159 -64 o
    192 92 [
    192 128 v
    92 128 v
    92 98 ]
    65 -4 o
    -107 -6 [
    0 0 z
  EndSpiro
EndSplineSet
EndChar
StartChar: k
Encoding: 107 107 26
Width: 512
VWidth: 0
InSpiro: 1
Flags: HMW
LayerCount: 2
Fore
SplineSet
512 102 m 1
 495.271484375 99.9560546875 477.927734375 105.018554688 464.49609375 115.198242188 c 0
 451.064453125 125.377929688 442.079101562 140.208984375 434 155 c 2
 304 393 l 1
 224 329 l 1
 326 133 l 2
 344.842773438 96.7919921875 365.853515625 60.4482421875 397.793945312 35.0341796875 c 0
 429.734375 9.6201171875 471.354492188 -3.73828125 512 0 c 1
 512 102 l 1
  Spiro
    512 102 v
    434 155 [
    304 393 v
    224 329 v
    326 133 ]
    512 0 v
    0 0 z
  EndSpiro
448 476 m 1
 448 576 l 1
 422.870117188 578.092773438 397.2734375 572.559570312 374.880859375 560.96484375 c 0
 352.489257812 549.369140625 333.831054688 531.831054688 316 514 c 2
 144 342 l 1
 144 199 l 1
 389 444 l 2
 397.11328125 452.11328125 405.518554688 460.10546875 415.421875 465.900390625 c 0
 425.325195312 471.6953125 436.547851562 475.280273438 448 476 c 1
  Spiro
    448 476 v
    448 576 v
    316 514 [
    144 342 v
    144 199 v
    389 444 ]
    0 0 z
  EndSpiro
64 768 m 1
 64 0 l 1
 164 0 l 1
 164 768 l 1
 64 768 l 1
  Spiro
    64 768 v
    64 0 v
    164 0 v
    164 768 v
    0 0 z
  EndSpiro
EndSplineSet
EndChar
StartChar: l
Encoding: 108 108 4
Width: 384
VWidth: 0
InSpiro: 1
Flags: HMW
LayerCount: 2
Fore
SplineSet
92 768 m 1
 242 768 l 1
 242 668 l 1
 92 668 l 1
 92 768 l 1
  Spiro
    92 768 v
    242 768 v
    242 668 v
    92 668 v
    0 0 z
  EndSpiro
92 100 m 1
 292 100 l 1
 292 0 l 1
 92 0 l 1
 92 100 l 1
  Spiro
    92 100 v
    292 100 v
    292 0 v
    92 0 v
    0 0 z
  EndSpiro
142 768 m 1
 242 768 l 1
 242 0 l 1
 142 0 l 1
 142 768 l 1
  Spiro
    142 768 v
    242 768 v
    242 0 v
    142 0 v
    0 0 z
  EndSpiro
EndSplineSet
EndChar
StartChar: m
Encoding: 109 109 3
Width: 576
VWidth: 0
InSpiro: 1
Flags: HMW
LayerCount: 2
Fore
SplineSet
412 0 m 5
 412 400 l 6
 412 410.887695312 412.959960938 421.780273438 412.426757812 432.655273438 c 4
 412.161132812 438.092773438 411.323242188 443.564453125 409.20703125 448.581054688 c 4
 407.090820312 453.596679688 403.614257812 458.111328125 399 461 c 4
 395.73828125 463.041015625 391.954101562 464.245117188 388.111328125 464.435546875 c 4
 384.267578125 464.626953125 380.390625 463.809570312 376.911132812 462.166992188 c 4
 369.951171875 458.8828125 364.862304688 452.43359375 361.850585938 445.3515625 c 4
 358.83984375 438.26953125 357.62109375 430.568359375 356.677734375 422.930664062 c 4
 355.735351562 415.29296875 354.954101562 407.635742188 354 400 c 6
 332 224 l 5
 244 224 l 5
 261 375 l 6
 265.793945312 417.583984375 269.114257812 461.045898438 284.583007812 501.008789062 c 4
 292.317382812 520.990234375 303.461914062 539.884765625 318.831054688 554.813476562 c 4
 334.200195312 569.743164062 353.873046875 580.43359375 375 584 c 4
 400.590820312 588.3203125 427.645507812 581.782226562 448.997070312 567.028320312 c 4
 470.348632812 552.275390625 485.840820312 530.0390625 495.330078125 505.883789062 c 4
 504.819335938 481.728515625 508.734375 455.72265625 510.48046875 429.828125 c 4
 512.2265625 403.934570312 512 377.953125 512 352 c 6
 512 0 l 5
 412 0 l 5
  Spiro
    412 400 ]
    399 461 o
    354 400 [
    332 224 v
    244 224 v
    261 375 ]
    375 584 o
    512 352 [
    512 0 v
    412 0 v
    0 0 z
  EndSpiro
164 0 m 1
 64 0 l 1
 64 352 l 2
 64 377.953125 63.7734375 403.934570312 65.51953125 429.828125 c 0
 67.265625 455.72265625 71.1806640625 481.728515625 80.669921875 505.883789062 c 0
 90.1591796875 530.0390625 105.651367188 552.275390625 127.002929688 567.028320312 c 0
 148.354492188 581.782226562 175.409179688 588.3203125 201 584 c 0
 222.126953125 580.43359375 241.799804688 569.743164062 257.168945312 554.813476562 c 0
 272.538085938 539.884765625 283.682617188 520.990234375 291.416992188 501.008789062 c 0
 306.885742188 461.045898438 310.206054688 417.583984375 315 375 c 2
 332 224 l 1
 244 224 l 1
 222 400 l 2
 221.045898438 407.635742188 220.264648438 415.29296875 219.322265625 422.930664062 c 0
 218.37890625 430.568359375 217.16015625 438.26953125 214.149414062 445.3515625 c 0
 211.137695312 452.43359375 206.048828125 458.8828125 199.088867188 462.166992188 c 0
 195.609375 463.809570312 191.732421875 464.626953125 187.888671875 464.435546875 c 0
 184.045898438 464.245117188 180.26171875 463.041015625 177 461 c 0
 172.385742188 458.111328125 168.909179688 453.596679688 166.79296875 448.581054688 c 0
 164.676757812 443.564453125 163.838867188 438.092773438 163.573242188 432.655273438 c 0
 163.040039062 421.780273438 164 410.887695312 164 400 c 2
 164 0 l 1
  Spiro
    164 0 v
    64 0 v
    64 352 ]
    201 584 o
    315 375 [
    332 224 v
    244 224 v
    222 400 ]
    177 461 o
    164 400 [
    0 0 z
  EndSpiro
EndSplineSet
EndChar
StartChar: s
Encoding: 115 115 17
Width: 384
VWidth: 0
InSpiro: 1
Flags: HMW
LayerCount: 2
Fore
SplineSet
-10 35 m 1
 21 134 l 1
 61.30859375 123.196289062 101.456054688 111.5390625 142.427734375 103.6171875 c 0
 162.9140625 99.65625 183.80078125 96.8212890625 204.619140625 98.2216796875 c 0
 215.028320312 98.921875 225.404296875 100.73046875 235.243164062 104.201171875 c 0
 245.081054688 107.671875 254.403320312 112.849609375 262 120 c 0
 269.32421875 126.89453125 274.96875 135.708007812 277.423828125 145.462890625 c 0
 279.879882812 155.217773438 278.9765625 165.759765625 275 175 c 0
 271.831054688 182.362304688 266.844726562 188.846679688 261.053710938 194.387695312 c 0
 255.26171875 199.927734375 248.702148438 204.603515625 242 209 c 0
 226.368164062 219.254882812 210.243164062 228.744140625 194 238 c 0
 155.116210938 260.157226562 111.74609375 273.955078125 74 298 c 0
 58.154296875 308.09375 43.611328125 320.418945312 32.0595703125 335.234375 c 0
 20.5068359375 350.049804688 12.0263671875 367.293945312 7.7060546875 385.578125 c 0
 -0.9345703125 422.145507812 7.9853515625 461.8515625 29 493 c 0
 49.2509765625 523.015625 79.6474609375 545.39453125 113.025390625 559.4296875 c 0
 146.403320312 573.46484375 182.793945312 579.599609375 219 580 c 0
 273.196289062 580.598632812 327.333984375 568.69921875 377 547 c 1
 347 451 l 1
 310.866210938 464.255859375 273.36328125 474.404296875 235.043945312 478.00390625 c 0
 215.883789062 479.803710938 196.408203125 479.810546875 177.5546875 475.951171875 c 0
 158.701171875 472.091796875 140.143554688 464.056640625 127 450 c 0
 118.927734375 441.3671875 113.153320312 430.393554688 111.694335938 418.665039062 c 0
 110.234375 406.936523438 113.333007812 394.758789062 120 385 c 0
 128.407226562 372.694335938 141.640625 364.60546875 155 358 c 0
 173.720703125 348.743164062 193.008789062 340.6875 212 332 c 0
 248.942382812 315.100585938 287.252929688 300.041015625 320 276 c 0
 337.978515625 262.801757812 353.888671875 246.54296875 365.328125 227.397460938 c 0
 376.767578125 208.251953125 383.612304688 186.336914062 384.737304688 164.0625 c 0
 385.86328125 141.788085938 381.296875 119.3046875 371.986328125 99.0390625 c 0
 362.67578125 78.7724609375 348.7265625 60.7529296875 332 46 c 0
 309.563476562 26.2109375 282.29296875 12.2861328125 253.640625 3.681640625 c 0
 224.987304688 -4.9228515625 194.9140625 -8.361328125 165 -8 c 0
 104.454101562 -7.2685546875 44.400390625 8.412109375 -10 35 c 1
  Spiro
    -10 35 v
    21 134 v
    262 120 o
    275 175 o
    242 209 o
    194 238 o
    74 298 o
    29 493 o
    219 580 o
    377 547 v
    347 451 v
    127 450 o
    120 385 o
    155 358 o
    212 332 o
    320 276 o
    332 46 o
    165 -8 o
    0 0 z
  EndSpiro
EndSplineSet
EndChar
StartChar: t
Encoding: 116 116 16
Width: 384
VWidth: 0
InSpiro: 1
Flags: HMW
LayerCount: 2
Fore
SplineSet
292 104 m 1
 273.935546875 97.08984375 253.684570312 96.0068359375 235 101 c 0
 210.401367188 107.57421875 189.05078125 125.032226562 177.278320312 147.610351562 c 0
 171.392578125 158.899414062 167.788085938 171.295898438 165.94140625 183.892578125 c 0
 164.09375 196.489257812 164 209.268554688 164 222 c 2
 164 768 l 1
 64 768 l 1
 64 246 l 2
 64 218.6015625 64.2685546875 191.061523438 68.923828125 164.061523438 c 0
 73.578125 137.061523438 82.625 110.6796875 96.9443359375 87.3203125 c 0
 125.58203125 40.6025390625 175.793945312 8.0244140625 230 0 c 0
 258.319335938 -4.1923828125 287.54296875 -2.1015625 315 6 c 1
 292 104 l 1
  Spiro
    292 104 v
    235 101 o
    164 222 [
    164 768 v
    64 768 v
    64 246 ]
    230 0 o
    315 6 v
    0 0 z
  EndSpiro
-36 566 m 1
 -36 466 l 1
 300 466 l 1
 300 566 l 1
 -36 566 l 1
  Spiro
    -36 466 v
    300 466 v
    300 566 v
    -36 566 v
    0 0 z
  EndSpiro
EndSplineSet
EndChar
StartChar: x
Encoding: 120 120 24
Width: 384
VWidth: 0
InSpiro: 1
Flags: HMW
LayerCount: 2
Fore
SplineSet
278 0 m 1
 276.73046875 10.060546875 275.061523438 20.0712890625 273 30 c 0
 255.310546875 115.213867188 206.370117188 190.252929688 154.342773438 260.018554688 c 0
 102.314453125 329.78515625 48.7041015625 400.8515625 23 484 c 0
 13.767578125 513.864257812 8 544.805664062 6 576 c 1
 106 576 l 1
 107.26953125 565.939453125 108.938476562 555.928710938 111 546 c 0
 128.689453125 460.786132812 177.629882812 385.747070312 229.657226562 315.981445312 c 0
 281.685546875 246.21484375 335.295898438 175.1484375 361 92 c 0
 370.232421875 62.1357421875 376 31.1943359375 378 0 c 1
 278 0 l 1
  Spiro
    273 30 o
    23 484 o
    6 576 v
    106 576 v
    111 546 o
    361 92 o
    378 0 v
    278 0 v
    0 0 z
  EndSpiro
106 0 m 1
 6 0 l 1
 8 31.1943359375 13.767578125 62.1357421875 23 92 c 0
 48.7041015625 175.1484375 102.314453125 246.21484375 154.342773438 315.981445312 c 0
 206.370117188 385.747070312 255.310546875 460.786132812 273 546 c 0
 275.061523438 555.928710938 276.73046875 565.939453125 278 576 c 1
 378 576 l 1
 376 544.805664062 370.232421875 513.864257812 361 484 c 0
 335.295898438 400.8515625 281.685546875 329.78515625 229.657226562 260.018554688 c 0
 177.629882812 190.252929688 128.689453125 115.213867188 111 30 c 0
 108.938476562 20.0712890625 107.26953125 10.060546875 106 0 c 1
  Spiro
    106 0 v
    6 0 v
    23 92 o
    273 546 o
    278 576 v
    378 576 v
    361 484 o
    111 30 o
    0 0 z
  EndSpiro
EndSplineSet
EndChar
StartChar: z
Encoding: 122 122 25
Width: 384
VWidth: 0
InSpiro: 1
Flags: HMW
LayerCount: 2
Fore
SplineSet
144 100 m 1
 26 100 l 1
 27.787109375 108.05078125 29.7890625 116.0546875 32 124 c 0
 45.0830078125 171.013671875 65.6103515625 215.731445312 90 258 c 0
 112.030273438 296.180664062 137.620117188 332.271484375 166 366 c 0
 187.274414062 391.284179688 210.037109375 415.309570312 230.69140625 441.103515625 c 0
 251.344726562 466.897460938 269.63671875 494.971679688 281 526 c 0
 286.908203125 542.130859375 290.96875 558.94140625 293 576 c 1
 384 576 l 1
 383.745117188 555.057617188 380.673828125 534.16015625 375 514 c 0
 360.994140625 464.236328125 330.673828125 420.857421875 299 380 c 0
 260.987304688 330.966796875 221.5859375 282.533203125 192 228 c 0
 170.196289062 187.811523438 153.736328125 144.673828125 144 100 c 1
  Spiro
    144 100 v
    26 100 v
    32 124 o
    90 258 o
    166 366 o
    281 526 o
    293 576 v
    384 576 v
    375 514 o
    299 380 c
    192 228 o
    0 0 z
  EndSpiro
26 576 m 1
 320 576 l 1
 320 476 l 1
 26 476 l 1
 26 576 l 1
  Spiro
    26 576 v
    320 576 v
    320 476 v
    26 476 v
    0 0 z
  EndSpiro
26 100 m 1
 384 100 l 1
 384 0 l 1
 26 0 l 1
 26 100 l 1
  Spiro
    26 100 v
    384 100 v
    384 0 v
    26 0 v
    0 0 z
  EndSpiro
EndSplineSet
EndChar
StartChar: braceleft
Encoding: 123 123 90
Width: 576
VWidth: 0
InSpiro: 1
Flags: HMW
LayerCount: 2
Fore
SplineSet
488 -82 m 1
 488 18 l 1
 478 18 l 2
 463.2578125 18 448.326171875 18.279296875 434.12890625 22.251953125 c 0
 419.930664062 26.224609375 406.701171875 33.9287109375 396.796875 44.8486328125 c 0
 386.892578125 55.7685546875 380.500976562 69.59765625 377.3125 83.9912109375 c 0
 374.123046875 98.384765625 374 113.2578125 374 128 c 2
 374 181 l 2
 374 202.338867188 373.862304688 223.752929688 370.885742188 244.883789062 c 0
 367.91015625 266.013671875 362.083007812 286.845703125 352.421875 305.872070312 c 0
 333.100585938 343.924804688 297.411132812 373.681640625 256 384 c 1
 297.4765625 394.576171875 333.139648438 424.529296875 352.444335938 462.732421875 c 0
 362.096679688 481.833984375 367.916992188 502.732421875 370.889648438 523.926757812 c 0
 373.862304688 545.12109375 374 566.598632812 374 588 c 2
 374 640 l 2
 374 654.7421875 374.123046875 669.615234375 377.3125 684.008789062 c 0
 380.500976562 698.40234375 386.892578125 712.231445312 396.796875 723.151367188 c 0
 406.701171875 734.071289062 419.930664062 741.775390625 434.12890625 745.748046875 c 0
 448.326171875 749.720703125 463.2578125 750 478 750 c 2
 488 750 l 1
 488 850 l 1
 478 850 l 2
 449.278320312 850 420.204101562 849.4921875 392.497070312 841.926757812 c 0
 364.7890625 834.362304688 338.869140625 819.642578125 319.3359375 798.5859375 c 0
 299.802734375 777.530273438 287.052734375 750.709960938 280.663085938 722.708984375 c 0
 274.274414062 694.70703125 274 665.721679688 274 637 c 2
 274 600 l 2
 274 579.822265625 273.302734375 559.336914062 267.079101562 540.142578125 c 0
 260.854492188 520.94921875 249.393554688 503.580078125 234.61328125 489.84375 c 0
 219.833007812 476.107421875 202.118164062 465.892578125 183.852539062 457.318359375 c 0
 165.586914062 448.744140625 146.734375 441.494140625 128 434 c 2
 88 418 l 1
 88 350 l 1
 128 334 l 2
 146.734375 326.505859375 165.586914062 319.255859375 183.852539062 310.681640625 c 0
 202.118164062 302.107421875 219.833007812 291.892578125 234.61328125 278.15625 c 0
 249.393554688 264.419921875 260.854492188 247.05078125 267.079101562 227.857421875 c 0
 273.302734375 208.663085938 274 188.177734375 274 168 c 2
 274 136 l 2
 274 106.921875 274.21484375 77.59765625 280.362304688 49.1767578125 c 0
 286.509765625 20.755859375 298.874023438 -6.6181640625 318.216796875 -28.330078125 c 0
 337.559570312 -50.041015625 363.533203125 -65.46875 391.49609375 -73.4453125 c 0
 419.458984375 -81.4208984375 448.921875 -82 478 -82 c 2
 488 -82 l 1
  Spiro
    488 -82 v
    488 18 v
    478 18 ]
    374 128 [
    374 181 ]
    256 384 v
    374 588 [
    374 640 ]
    478 750 [
    488 750 v
    488 850 v
    478 850 ]
    274 637 [
    274 600 ]
    128 434 [
    88 418 v
    88 350 v
    128 334 ]
    274 168 [
    274 136 ]
    478 -82 [
    0 0 z
  EndSpiro
EndSplineSet
EndChar
StartChar: braceright
Encoding: 125 125 91
Width: 576
VWidth: 0
InSpiro: 1
Flags: HMW
LayerCount: 2
Fore
SplineSet
88 850 m 1
 88 750 l 1
 98 750 l 2
 112.7421875 750 127.673828125 749.720703125 141.87109375 745.748046875 c 0
 156.069335938 741.775390625 169.298828125 734.071289062 179.203125 723.151367188 c 0
 189.107421875 712.231445312 195.499023438 698.40234375 198.6875 684.008789062 c 0
 201.876953125 669.615234375 202 654.7421875 202 640 c 2
 202 587 l 2
 202 565.661132812 202.137695312 544.247070312 205.114257812 523.116210938 c 0
 208.08984375 501.986328125 213.916992188 481.154296875 223.578125 462.127929688 c 0
 242.899414062 424.075195312 278.588867188 394.318359375 320 384 c 1
 278.5234375 373.423828125 242.860351562 343.470703125 223.555664062 305.267578125 c 0
 213.903320312 286.166015625 208.083007812 265.267578125 205.110351562 244.073242188 c 0
 202.137695312 222.87890625 202 201.401367188 202 180 c 2
 202 128 l 2
 202 113.2578125 201.876953125 98.384765625 198.6875 83.9912109375 c 0
 195.499023438 69.59765625 189.107421875 55.7685546875 179.203125 44.8486328125 c 0
 169.298828125 33.9287109375 156.069335938 26.224609375 141.87109375 22.251953125 c 0
 127.673828125 18.279296875 112.7421875 18 98 18 c 2
 88 18 l 1
 88 -82 l 1
 98 -82 l 2
 126.721679688 -82 155.795898438 -81.4921875 183.502929688 -73.9267578125 c 0
 211.2109375 -66.3623046875 237.130859375 -51.642578125 256.6640625 -30.5859375 c 0
 276.197265625 -9.5302734375 288.947265625 17.2900390625 295.336914062 45.291015625 c 0
 301.725585938 73.29296875 302 102.278320312 302 131 c 2
 302 168 l 2
 302 188.177734375 302.697265625 208.663085938 308.920898438 227.857421875 c 0
 315.145507812 247.05078125 326.606445312 264.419921875 341.38671875 278.15625 c 0
 356.166992188 291.892578125 373.881835938 302.107421875 392.147460938 310.681640625 c 0
 410.413085938 319.255859375 429.265625 326.505859375 448 334 c 2
 488 350 l 1
 488 418 l 1
 448 434 l 2
 429.265625 441.494140625 410.413085938 448.744140625 392.147460938 457.318359375 c 0
 373.881835938 465.892578125 356.166992188 476.107421875 341.38671875 489.84375 c 0
 326.606445312 503.580078125 315.145507812 520.94921875 308.920898438 540.142578125 c 0
 302.697265625 559.336914062 302 579.822265625 302 600 c 2
 302 632 l 2
 302 661.078125 301.78515625 690.40234375 295.637695312 718.823242188 c 0
 289.490234375 747.244140625 277.125976562 774.618164062 257.783203125 796.330078125 c 0
 238.440429688 818.041015625 212.466796875 833.46875 184.50390625 841.4453125 c 0
 156.541015625 849.420898438 127.078125 850 98 850 c 2
 88 850 l 1
  Spiro
    88 850 v
    88 750 v
    98 750 ]
    202 640 [
    202 587 ]
    320 384 v
    202 180 [
    202 128 ]
    98 18 [
    88 18 v
    88 -82 v
    98 -82 ]
    302 131 [
    302 168 ]
    448 334 [
    488 350 v
    488 418 v
    448 434 ]
    302 600 [
    302 632 ]
    98 850 [
    0 0 z
  EndSpiro
EndSplineSet
EndChar
StartChar: asciitilde
Encoding: 126 126 93
Width: 576
VWidth: 0
InSpiro: 1
Flags: HMW
LayerCount: 2
Fore
SplineSet
64 342 m 1
 154 342 l 1
 154 372 l 2
 154 381.977539062 153.576171875 392.009765625 154.930664062 401.895507812 c 0
 155.607421875 406.837890625 156.817382812 411.739257812 158.935546875 416.256835938 c 0
 161.052734375 420.7734375 164.10546875 424.881835938 168 428 c 0
 173.55859375 432.451171875 180.770507812 434.697265625 187.887695312 434.46875 c 0
 195.004882812 434.241210938 201.9140625 431.697265625 208 428 c 0
 223.471679688 418.599609375 234.07421875 403.134765625 245.369140625 388.987304688 c 0
 256.665039062 374.83984375 268.817382812 361.250976562 283 350 c 0
 308.736328125 329.584960938 341.075195312 316.989257812 373.924804688 317.260742188 c 0
 406.7734375 317.53125 438.958007812 330.739257812 464 352 c 0
 484.620117188 369.506835938 501.064453125 391.725585938 513 416 c 0
 519.224609375 428.66015625 524.069335938 442.037109375 526.830078125 455.873046875 c 0
 529.590820312 469.708007812 530 483.891601562 530 498 c 2
 530 552 l 1
 430 552 l 1
 430 530 l 2
 430 511.014648438 430.956054688 491.813476562 427.16015625 473.211914062 c 0
 425.26171875 463.911132812 421.95703125 454.8046875 416.587890625 446.975585938 c 0
 411.219726562 439.147460938 403.736328125 432.713867188 395 429 c 0
 382.734375 423.786132812 368.458007812 424.264648438 356 429 c 0
 342.733398438 434.04296875 331.485351562 443.400390625 322.02734375 453.982421875 c 0
 312.568359375 464.563476562 304.672851562 476.421875 296.4609375 487.998046875 c 0
 288.248046875 499.573242188 279.620117188 510.943359375 269.35546875 520.744140625 c 0
 259.090820312 530.545898438 247.16796875 538.705078125 234 544 c 0
 208.70703125 554.169921875 179.713867188 553.053710938 154 544 c 0
 124.790039062 533.715820312 98.80078125 513.6328125 83 487 c 0
 74.984375 473.490234375 69.7060546875 458.430664062 66.9521484375 442.96484375 c 0
 64.1982421875 427.5 64 411.708007812 64 396 c 2
 64 342 l 1
  Spiro
    64 342 v
    154 342 v
    154 372 ]
    168 428 o
    208 428 o
    283 350 o
    464 352 o
    513 416 o
    530 498 [
    530 552 v
    430 552 v
    430 530 ]
    395 429 o
    356 429 o
    234 544 o
    154 544 o
    83 487 o
    64 396 [
    0 0 z
  EndSpiro
EndSplineSet
EndChar
StartChar: exclamdown
Encoding: 161 161 160
Width: 256
VWidth: 0
InSpiro: 1
Flags: HMW
LayerCount: 2
Fore
SplineSet
188 652 m 0
 188 667.184570312 181.749023438 682.275390625 171.01171875 693.01171875 c 0
 160.275390625 703.749023438 145.184570312 710 130 710 c 0
 114.815429688 710 99.724609375 703.749023438 88.98828125 693.01171875 c 0
 78.2509765625 682.275390625 72 667.184570312 72 652 c 0
 72 636.815429688 78.2509765625 621.724609375 88.98828125 610.98828125 c 0
 99.724609375 600.250976562 114.815429688 594 130 594 c 0
 145.184570312 594 160.275390625 600.250976562 171.01171875 610.98828125 c 0
 181.749023438 621.724609375 188 636.815429688 188 652 c 0
  Spiro
    188 652 o
    130 710 o
    72 652 o
    130 594 o
    0 0 z
  EndSpiro
182 498 m 1
 82 498 l 1
 82 -50 l 1
 182 -50 l 1
 182 498 l 1
  Spiro
    182 498 v
    82 498 v
    82 -50 v
    182 -50 v
    0 0 z
  EndSpiro
EndSplineSet
EndChar
StartChar: brokenbar
Encoding: 166 166 170
Width: 256
VWidth: 0
InSpiro: 1
Flags: HMW
LayerCount: 2
Fore
SplineSet
78 -90 m 1
 78 334 l 1
 178 334 l 1
 178 -90 l 1
 78 -90 l 1
  Spiro
    78 -90 v
    78 334 v
    178 334 v
    178 -90 v
    0 0 z
  EndSpiro
78 434 m 1
 78 858 l 1
 178 858 l 1
 178 434 l 1
 78 434 l 1
  Spiro
    78 434 v
    78 858 v
    178 858 v
    178 434 v
    0 0 z
  EndSpiro
EndSplineSet
EndChar
StartChar: copyright
Encoding: 169 169 202
Width: 576
VWidth: 0
InSpiro: 1
Flags: HMW
LayerCount: 2
Fore
SplineSet
198 455 m 2
 198 470.759765625 198.272460938 486.6640625 201.913085938 501.998046875 c 0
 205.552734375 517.331054688 212.5390625 531.938476562 222.759765625 543.93359375 c 0
 232.981445312 555.9296875 246.260742188 565.2109375 260.844726562 571.18359375 c 0
 275.428710938 577.15625 291.241210938 579.920898438 307 580 c 0
 324.353515625 580.086914062 341.702148438 576.959960938 358 571 c 1
 348 524 l 1
 334.772460938 528.196289062 320.869140625 530.4453125 307 530 c 0
 298.7265625 529.734375 290.439453125 528.446289062 282.666015625 525.599609375 c 0
 274.893554688 522.752929688 267.66796875 518.2734375 262.000976562 512.240234375 c 0
 256.333984375 506.206054688 252.34765625 498.666015625 250.258789062 490.655273438 c 0
 248.169921875 482.645507812 248 474.27734375 248 466 c 2
 248 367 l 2
 248 358.633789062 248.178710938 350.16796875 250.381835938 342.09765625 c 0
 252.584960938 334.026367188 256.794921875 326.475585938 262.731445312 320.581054688 c 0
 268.66796875 314.686523438 276.194335938 310.501953125 284.1953125 308.055664062 c 0
 292.1953125 305.609375 300.635742188 304.8203125 309 305 c 0
 330.284179688 305.458007812 351.190429688 311.202148438 371 319 c 1
 388 271 l 1
 363.05859375 260.522460938 336.05078125 254.6484375 309 255 c 0
 293.293945312 255.204101562 277.53125 257.620117188 262.819335938 263.124023438 c 0
 248.107421875 268.62890625 234.51953125 277.346679688 223.938476562 288.955078125 c 0
 213.357421875 300.564453125 205.995117188 314.963867188 202.1484375 330.193359375 c 0
 198.301757812 345.422851562 198 361.291992188 198 377 c 2
 198 455 l 2
  Spiro
    198 455 ]
    307 580 o
    358 571 v
    348 524 v
    307 530 o
    248 466 [
    248 367 ]
    309 305 o
    371 319 v
    388 271 v
    309 255 o
    198 377 [
    0 0 z
  EndSpiro
320 718 m 0
 298.861328125 721.516601562 277.138671875 721.516601562 256 718 c 0
 233.729492188 714.295898438 212.064453125 706.626953125 192.749023438 694.938476562 c 0
 173.434570312 683.25 156.571289062 667.469726562 143.90625 648.78125 c 0
 131.2421875 630.091796875 122.92578125 608.616210938 118.609375 586.456054688 c 0
 114.293945312 564.296875 114 541.576171875 114 519 c 2
 114 313 l 2
 114 290.423828125 114.293945312 267.703125 118.609375 245.543945312 c 0
 122.92578125 223.383789062 131.2421875 201.908203125 143.90625 183.21875 c 0
 156.571289062 164.530273438 173.434570312 148.75 192.749023438 137.061523438 c 0
 212.064453125 125.373046875 233.729492188 117.704101562 256 114 c 0
 277.138671875 110.483398438 298.861328125 110.483398438 320 114 c 0
 342.270507812 117.704101562 363.935546875 125.373046875 383.250976562 137.061523438 c 0
 402.565429688 148.75 419.428710938 164.530273438 432.09375 183.21875 c 0
 444.7578125 201.908203125 453.07421875 223.383789062 457.390625 245.543945312 c 0
 461.706054688 267.703125 462 290.423828125 462 313 c 2
 462 519 l 2
 462 541.576171875 461.706054688 564.296875 457.390625 586.456054688 c 0
 453.07421875 608.616210938 444.7578125 630.091796875 432.09375 648.78125 c 0
 419.428710938 667.469726562 402.565429688 683.25 383.250976562 694.938476562 c 0
 363.935546875 706.626953125 342.270507812 714.295898438 320 718 c 0
  Spiro
    320 718 o
    256 718 o
    114 519 [
    114 313 ]
    256 114 o
    320 114 o
    462 313 [
    462 519 ]
    0 0 z
  EndSpiro
256 768 m 0
 277.240234375 770.434570312 298.759765625 770.434570312 320 768 c 0
 348.571289062 764.724609375 376.733398438 756.990234375 402.4375 744.092773438 c 0
 428.141601562 731.1953125 451.267578125 712.962890625 469.0234375 690.341796875 c 0
 486.780273438 667.719726562 498.876953125 640.865234375 505.197265625 612.809570312 c 0
 511.516601562 584.754882812 512 555.7578125 512 527 c 2
 512 310 l 2
 512 280.918945312 511.537109375 251.608398438 505.326171875 223.197265625 c 0
 499.115234375 194.787109375 487.208984375 167.512695312 469.586914062 144.377929688 c 0
 451.96484375 121.244140625 428.897460938 102.41015625 403.094726562 88.9951171875 c 0
 377.291992188 75.5810546875 348.87890625 67.4296875 320 64 c 0
 298.766601562 61.478515625 277.233398438 61.478515625 256 64 c 0
 227.12109375 67.4296875 198.708007812 75.5810546875 172.905273438 88.9951171875 c 0
 147.102539062 102.41015625 124.03515625 121.244140625 106.413085938 144.377929688 c 0
 88.791015625 167.512695312 76.884765625 194.787109375 70.673828125 223.197265625 c 0
 64.462890625 251.608398438 64 280.918945312 64 310 c 2
 64 527 l 2
 64 555.7578125 64.4833984375 584.754882812 70.802734375 612.809570312 c 0
 77.123046875 640.865234375 89.2197265625 667.719726562 106.9765625 690.341796875 c 0
 124.732421875 712.962890625 147.858398438 731.1953125 173.5625 744.092773438 c 0
 199.266601562 756.990234375 227.428710938 764.724609375 256 768 c 0
  Spiro
    256 768 o
    320 768 o
    512 527 [
    512 310 ]
    320 64 o
    256 64 o
    64 310 [
    64 527 ]
    0 0 z
  EndSpiro
EndSplineSet
EndChar
StartChar: registered
Encoding: 174 174 203
Width: 576
VWidth: 0
InSpiro: 1
Flags: HMW
LayerCount: 2
Fore
SplineSet
224 451 m 1
 224 401 l 1
 280 401 l 2
 292.973632812 401 306.056640625 401.212890625 318.708984375 404.080078125 c 0
 331.362304688 406.947265625 343.475585938 412.447265625 353.583984375 420.579101562 c 0
 363.692382812 428.7109375 371.723632812 439.352539062 377.024414062 451.193359375 c 0
 382.325195312 463.03515625 384.96875 476.026367188 385 489 c 0
 385.030273438 501.783203125 382.520507812 514.6015625 377.376953125 526.3046875 c 0
 372.232421875 538.006835938 364.381835938 548.543945312 354.456054688 556.599609375 c 0
 344.530273438 564.655273438 332.603515625 570.107421875 320.140625 572.948242188 c 0
 307.676757812 575.790039062 294.783203125 576 282 576 c 2
 192 576 l 1
 192 526 l 1
 280 526 l 2
 286.21875 526 292.462890625 525.967773438 298.615234375 525.057617188 c 0
 304.767578125 524.147460938 310.831054688 522.344726562 316.24609375 519.287109375 c 0
 321.661132812 516.228515625 326.392578125 511.908203125 329.711914062 506.6484375 c 0
 333.030273438 501.389648438 334.90625 495.21875 335 489 c 0
 335.095703125 482.698242188 333.359375 476.388671875 330.110351562 470.986328125 c 0
 326.862304688 465.584960938 322.135742188 461.122070312 316.684570312 457.958007812 c 0
 311.233398438 454.793945312 305.095703125 452.922851562 298.864257812 451.978515625 c 0
 292.6328125 451.034179688 286.302734375 451 280 451 c 2
 224 451 l 1
  Spiro
    224 451 v
    224 401 v
    280 401 ]
    385 489 o
    282 576 [
    192 576 v
    192 526 v
    280 526 ]
    335 489 o
    280 451 [
    0 0 z
  EndSpiro
393 256 m 1
 390.599609375 266.154296875 389.6640625 276.587890625 389 287 c 0
 388.509765625 294.680664062 387.918945312 302.458007812 385.388671875 309.7265625 c 0
 382.858398438 316.994140625 378.12890625 323.26171875 373 329 c 2
 272 442 l 1
 234 404 l 1
 324 311 l 2
 328.41796875 306.434570312 332.534179688 301.438476562 334.94140625 295.559570312 c 0
 337.349609375 289.680664062 338.245117188 283.30859375 339 277 c 0
 339.83984375 269.977539062 340.681640625 262.94921875 342 256 c 1
 393 256 l 1
  Spiro
    393 256 v
    389 287 o
    373 329 [
    272 442 v
    234 404 v
    324 311 ]
    339 277 o
    342 256 v
    0 0 z
  EndSpiro
192 568 m 1
 192 256 l 1
 242 256 l 1
 242 568 l 1
 192 568 l 1
  Spiro
    192 568 v
    192 256 v
    242 256 v
    242 568 v
    0 0 z
  EndSpiro
320 718 m 0
 298.861328125 721.516601562 277.138671875 721.516601562 256 718 c 0
 233.729492188 714.295898438 212.064453125 706.626953125 192.749023438 694.938476562 c 0
 173.434570312 683.25 156.571289062 667.469726562 143.90625 648.78125 c 0
 131.2421875 630.091796875 122.92578125 608.616210938 118.609375 586.456054688 c 0
 114.293945312 564.296875 114 541.576171875 114 519 c 2
 114 313 l 2
 114 290.423828125 114.293945312 267.703125 118.609375 245.543945312 c 0
 122.92578125 223.383789062 131.2421875 201.908203125 143.90625 183.21875 c 0
 156.571289062 164.530273438 173.434570312 148.75 192.749023438 137.061523438 c 0
 212.064453125 125.373046875 233.729492188 117.704101562 256 114 c 0
 277.138671875 110.483398438 298.861328125 110.483398438 320 114 c 0
 342.270507812 117.704101562 363.935546875 125.373046875 383.250976562 137.061523438 c 0
 402.565429688 148.75 419.428710938 164.530273438 432.09375 183.21875 c 0
 444.7578125 201.908203125 453.07421875 223.383789062 457.390625 245.543945312 c 0
 461.706054688 267.703125 462 290.423828125 462 313 c 2
 462 519 l 2
 462 541.576171875 461.706054688 564.296875 457.390625 586.456054688 c 0
 453.07421875 608.616210938 444.7578125 630.091796875 432.09375 648.78125 c 0
 419.428710938 667.469726562 402.565429688 683.25 383.250976562 694.938476562 c 0
 363.935546875 706.626953125 342.270507812 714.295898438 320 718 c 0
  Spiro
    320 718 o
    256 718 o
    114 519 [
    114 313 ]
    256 114 o
    320 114 o
    462 313 [
    462 519 ]
    0 0 z
  EndSpiro
256 768 m 0
 277.240234375 770.434570312 298.759765625 770.434570312 320 768 c 0
 348.571289062 764.724609375 376.733398438 756.990234375 402.4375 744.092773438 c 0
 428.141601562 731.1953125 451.267578125 712.962890625 469.0234375 690.341796875 c 0
 486.780273438 667.719726562 498.876953125 640.865234375 505.197265625 612.809570312 c 0
 511.516601562 584.754882812 512 555.7578125 512 527 c 2
 512 310 l 2
 512 280.918945312 511.537109375 251.608398438 505.326171875 223.197265625 c 0
 499.115234375 194.787109375 487.208984375 167.512695312 469.586914062 144.377929688 c 0
 451.96484375 121.244140625 428.897460938 102.41015625 403.094726562 88.9951171875 c 0
 377.291992188 75.5810546875 348.87890625 67.4296875 320 64 c 0
 298.766601562 61.478515625 277.233398438 61.478515625 256 64 c 0
 227.12109375 67.4296875 198.708007812 75.5810546875 172.905273438 88.9951171875 c 0
 147.102539062 102.41015625 124.03515625 121.244140625 106.413085938 144.377929688 c 0
 88.791015625 167.512695312 76.884765625 194.787109375 70.673828125 223.197265625 c 0
 64.462890625 251.608398438 64 280.918945312 64 310 c 2
 64 527 l 2
 64 555.7578125 64.4833984375 584.754882812 70.802734375 612.809570312 c 0
 77.123046875 640.865234375 89.2197265625 667.719726562 106.9765625 690.341796875 c 0
 124.732421875 712.962890625 147.858398438 731.1953125 173.5625 744.092773438 c 0
 199.266601562 756.990234375 227.428710938 764.724609375 256 768 c 0
  Spiro
    256 768 o
    320 768 o
    512 527 [
    512 310 ]
    320 64 o
    256 64 o
    64 310 [
    64 527 ]
    0 0 z
  EndSpiro
EndSplineSet
EndChar
StartChar: macron
Encoding: 175 175 165
Width: 576
VWidth: 0
Flags: HMW
LayerCount: 2
Fore
SplineSet
504 718 m 5
 504 818 l 5
 72 818 l 5
 72 718 l 5
 504 718 l 5
  Spiro
    504 718 v
    504 818 v
    72 818 v
    72 718 v
    0 0 z
  EndSpiro
EndSplineSet
EndChar
StartChar: paragraph
Encoding: 182 182 198
Width: 576
VWidth: 0
InSpiro: 1
Flags: HMW
LayerCount: 2
Fore
SplineSet
396 0 m 1
 396 760 l 1
 296 760 l 1
 296 0 l 1
 396 0 l 1
  Spiro
    396 0 v
    396 760 v
    296 760 v
    296 0 v
    0 0 z
  EndSpiro
530 0 m 1
 530 760 l 1
 430 760 l 1
 430 0 l 1
 530 0 l 1
  Spiro
    530 0 v
    530 760 v
    430 760 v
    430 0 v
    0 0 z
  EndSpiro
338 370 m 2
 314.299804688 370 290.259765625 370.658203125 267.59765625 377.59765625 c 0
 244.936523438 384.538085938 224.143554688 397.590820312 208.3359375 415.25 c 0
 192.528320312 432.908203125 181.732421875 454.71875 175.440429688 477.568359375 c 0
 169.1484375 500.41796875 167.037109375 524.319335938 168 548 c 0
 168.905273438 570.265625 172.560546875 592.509765625 179.98828125 613.51953125 c 0
 187.416992188 634.530273438 198.876953125 654.28125 214.603515625 670.068359375 c 0
 230.331054688 685.856445312 250.26953125 697.309570312 271.711914062 703.377929688 c 0
 293.154296875 709.446289062 315.715820312 710 338 710 c 2
 387 710 l 1
 387 760 l 1
 271 760 l 2
 242.936523438 760 214.450195312 759.171875 187.69140625 750.715820312 c 0
 160.932617188 742.258789062 136.541992188 726.412109375 118.114257812 705.24609375 c 0
 99.6875 684.080078125 87.22265625 658.16796875 79.5654296875 631.169921875 c 0
 71.9072265625 604.171875 68.654296875 576.055664062 68 548 c 0
 67.310546875 518.44140625 69.458984375 488.6953125 76.248046875 459.918945312 c 0
 83.0380859375 431.142578125 94.9375 403.255859375 113.48828125 380.232421875 c 0
 132.038085938 357.208984375 157.293945312 339.703125 185.334960938 330.327148438 c 0
 213.375 320.950195312 243.43359375 320 273 320 c 2
 387 320 l 1
 387 370 l 1
 338 370 l 2
  Spiro
    338 370 ]
    168 548 o
    338 710 [
    387 710 v
    387 760 v
    271 760 ]
    68 548 o
    273 320 [
    387 320 v
    387 370 v
    0 0 z
  EndSpiro
EndSplineSet
EndChar
StartChar: periodcentered
Encoding: 183 183 164
Width: 256
VWidth: 0
InSpiro: 1
Flags: HMW
LayerCount: 2
Fore
SplineSet
78 376 m 2
 78 368.602539062 78.1171875 361.143554688 79.7314453125 353.924804688 c 0
 81.345703125 346.705078125 84.4462890625 339.784179688 89.052734375 333.995117188 c 0
 93.6591796875 328.20703125 99.7041015625 323.594726562 106.447265625 320.552734375 c 0
 113.190429688 317.509765625 120.602539062 316 128 316 c 0
 135.397460938 316 142.809570312 317.509765625 149.552734375 320.552734375 c 0
 156.295898438 323.594726562 162.340820312 328.20703125 166.947265625 333.995117188 c 0
 171.553710938 339.784179688 174.654296875 346.705078125 176.268554688 353.924804688 c 0
 177.8828125 361.143554688 178 368.602539062 178 376 c 2
 178 496 l 2
 178 503.397460938 177.8828125 510.856445312 176.268554688 518.075195312 c 0
 174.654296875 525.294921875 171.553710938 532.215820312 166.947265625 538.004882812 c 0
 162.340820312 543.79296875 156.295898438 548.405273438 149.552734375 551.447265625 c 0
 142.809570312 554.490234375 135.397460938 556 128 556 c 0
 120.602539062 556 113.190429688 554.490234375 106.447265625 551.447265625 c 0
 99.7041015625 548.405273438 93.6591796875 543.79296875 89.052734375 538.004882812 c 0
 84.4462890625 532.215820312 81.345703125 525.294921875 79.7314453125 518.075195312 c 0
 78.1171875 510.856445312 78 503.397460938 78 496 c 2
 78 376 l 2
  Spiro
    78 376 ]
    128 316 o
    178 376 [
    178 496 ]
    128 556 o
    78 496 [
    0 0 z
  EndSpiro
EndSplineSet
EndChar
StartChar: cedilla
Encoding: 184 184 163
Width: 256
VWidth: 0
InSpiro: 1
Flags: HMW
AnchorPoint: "bottom" 128 0 mark 0
LayerCount: 2
Fore
SplineSet
-85 -96 m 1
 -57 -38 l 1
 -45.1220703125 -44.7919921875 -31.7080078125 -48.8955078125 -18.0595703125 -49.84375 c 0
 -4.41015625 -50.791015625 9.5126953125 -48.591796875 22 -43 c 0
 29.5400390625 -39.623046875 36.509765625 -34.9697265625 42.48828125 -29.267578125 c 0
 48.466796875 -23.5654296875 53.330078125 -16.8154296875 58 -10 c 2
 95 44 l 2
 99.1220703125 50.015625 103.34765625 56.0166015625 108.533203125 61.1435546875 c 0
 113.71875 66.271484375 119.8359375 70.501953125 126.608398438 73.2080078125 c 0
 140.15234375 78.619140625 155.994140625 77.6025390625 169 71 c 0
 175.721679688 67.587890625 181.733398438 62.732421875 186.310546875 56.7431640625 c 0
 190.887695312 50.7529296875 193.975585938 43.61328125 195.051757812 36.15234375 c 0
 196.127929688 28.69140625 195.155273438 20.9970703125 192.638671875 13.8916015625 c 0
 190.122070312 6.78515625 186.094726562 0.3291015625 182 -6 c 2
 171 -23 l 2
 156.149414062 -45.9501953125 139.557617188 -68.1923828125 118 -85 c 0
 89.53515625 -107.193359375 54.25390625 -120.583007812 18.21484375 -122.580078125 c 0
 -17.82421875 -124.578125 -54.416015625 -115.16796875 -85 -96 c 1
  Spiro
    -57 -38 v
    22 -43 o
    58 -10 [
    95 44 ]
    169 71 o
    182 -6 [
    171 -23 ]
    118 -85 o
    -85 -96 v
    0 0 z
  EndSpiro
EndSplineSet
EndChar
StartChar: AE
Encoding: 198 198 126
Width: 576
VWidth: 0
InSpiro: 1
Flags: HMW
LayerCount: 2
Fore
SplineSet
270 0 m 1
 270 100 l 1
 540 100 l 1
 540 0 l 1
 270 0 l 1
  Spiro
    270 100 v
    540 100 v
    540 0 v
    270 0 v
    0 0 z
  EndSpiro
270 720 m 1
 270 820 l 1
 540 820 l 1
 540 720 l 1
 270 720 l 1
  Spiro
    270 820 v
    540 820 v
    540 720 v
    270 720 v
    0 0 z
  EndSpiro
270 384 m 1
 270 484 l 1
 487 484 l 1
 487 384 l 1
 270 384 l 1
  Spiro
    270 484 v
    487 484 v
    487 384 v
    270 384 v
    0 0 z
  EndSpiro
140 284 m 1
 140 384 l 1
 304 384 l 1
 304 284 l 1
 140 284 l 1
  Spiro
    140 284 v
    140 384 v
    304 384 v
    304 284 v
    0 0 z
  EndSpiro
270 825 m 1024
  Spiro
    270 825 {
    0 0 z
  EndSpiro
176 0 m 1
 76 0 l 1
 76 616 l 2
 76 625.374023438 75.3828125 634.852539062 77.1845703125 644.051757812 c 0
 78.0849609375 648.651367188 79.7099609375 653.12109375 82.1259765625 657.137695312 c 0
 84.5419921875 661.154296875 87.7392578125 664.6328125 91 668 c 2
 213 794 l 2
 220.489257812 801.735351562 228.329101562 809.290039062 237.603515625 814.758789062 c 0
 246.87890625 820.2265625 257.317382812 823.651367188 268 825 c 0
 281.951171875 826.76171875 296.303710938 825.1796875 309.579101562 820.543945312 c 0
 322.854492188 815.907226562 335.053710938 808.09765625 344.561523438 797.736328125 c 0
 354.068359375 787.375 360.71484375 774.512695312 364.2109375 760.892578125 c 0
 367.708007812 747.271484375 368 733.0625 368 719 c 2
 368 667 l 1
 368 585 l 1
 368 0 l 1
 268 0 l 1
 268 469 l 1
 268 627 l 1
 268 691 l 2
 268 692.171875 267.939453125 693.381835938 267.423828125 694.435546875 c 0
 266.909179688 695.48828125 265.965820312 696.31640625 264.864257812 696.716796875 c 0
 263.76171875 697.1171875 262.547851562 697.112304688 261.392578125 696.916992188 c 0
 260.236328125 696.721679688 259.115234375 696.360351562 258 696 c 0
 256.34375 695.46484375 254.672851562 694.944335938 253.116210938 694.166015625 c 0
 251.559570312 693.38671875 250.217773438 692.243164062 249 691 c 2
 201 642 l 2
 194.227539062 635.086914062 187.118164062 628.30078125 182.245117188 619.939453125 c 0
 179.807617188 615.758789062 178.022460938 611.193359375 177.061523438 606.451171875 c 0
 176.100585938 601.708007812 176 596.838867188 176 592 c 2
 176 0 l 1
  Spiro
    176 0 v
    76 0 v
    76 616 ]
    91 668 [
    213 794 ]
    268 825 o
    368 719 [
    368 667 ]
    368 585 [
    368 0 v
    268 0 v
    268 469 ]
    268 627 [
    268 691 ]
    258 696 o
    249 691 [
    201 642 ]
    176 592 [
    0 0 z
  EndSpiro
EndSplineSet
EndChar
StartChar: Thorn
Encoding: 222 222 200
Width: 576
VWidth: 0
InSpiro: 1
Flags: HMW
LayerCount: 2
Fore
SplineSet
64 756 m 5
 164 756 l 5
 164 0 l 5
 64 0 l 5
 64 756 l 5
  Spiro
    164 756 v
    164 0 v
    64 0 v
    64 756 v
    0 0 z
  EndSpiro
128 476 m 1
 128 576 l 1
 288 576 l 2
 316.514648438 576 345.260742188 575.557617188 373.103515625 569.405273438 c 0
 400.947265625 563.25390625 427.671875 551.42578125 450.079101562 533.790039062 c 0
 472.486328125 516.154296875 490.40625 492.958007812 502.250976562 467.018554688 c 0
 514.094726562 441.080078125 520 412.514648438 520 384 c 0
 520 355.485351562 514.094726562 326.919921875 502.250976562 300.981445312 c 0
 490.40625 275.041992188 472.486328125 251.845703125 450.079101562 234.209960938 c 0
 427.671875 216.57421875 400.947265625 204.74609375 373.103515625 198.594726562 c 0
 345.260742188 192.442382812 316.514648438 192 288 192 c 2
 128 192 l 1
 128 292 l 1
 308 292 l 2
 321.719726562 292 335.548828125 292.20703125 348.953125 295.130859375 c 0
 362.358398438 298.0546875 375.240234375 303.680664062 386.0703125 312.103515625 c 0
 396.900390625 320.52734375 405.595703125 331.6328125 411.35546875 344.084960938 c 0
 417.115234375 356.538085938 420 370.280273438 420 384 c 0
 420 397.719726562 417.115234375 411.461914062 411.35546875 423.915039062 c 0
 405.595703125 436.3671875 396.900390625 447.47265625 386.0703125 455.896484375 c 0
 375.240234375 464.319335938 362.358398438 469.9453125 348.953125 472.869140625 c 0
 335.548828125 475.79296875 321.719726562 476 308 476 c 2
 128 476 l 1
  Spiro
    128 476 v
    128 576 v
    288 576 ]
    520 384 o
    288 192 [
    128 192 v
    128 292 v
    308 292 ]
    420 384 o
    308 476 [
    0 0 z
  EndSpiro
EndSplineSet
EndChar
StartChar: germandbls
Encoding: 223 223 207
Width: 576
VWidth: 0
InSpiro: 1
Flags: HW
HStem: 0 21G<64 164>
VStem: 64 100<0 688.311>
LayerCount: 2
Fore
SplineSet
64 0 m 1
 64 581 l 2
 64 616.438476562 64.5283203125 652.211914062 72.6962890625 686.696289062 c 0
 80.8642578125 721.180664062 96.724609375 754.119140625 120.546875 780.356445312 c 0
 144.369140625 806.59375 175.862304688 825.80078125 210.133789062 834.821289062 c 0
 244.405273438 843.841796875 281.239257812 842.77734375 315 832 c 0
 360.829101562 817.370117188 400.409179688 784.150390625 422.649414062 741.493164062 c 0
 433.770507812 720.1640625 440.682617188 696.779296875 444.2421875 672.990234375 c 0
 447.80078125 649.201171875 448 625.053710938 448 601 c 2
 448 562 l 1
 349 608 l 1
 346 636 l 2
 344.615234375 648.926757812 343.0234375 661.924804688 339.0390625 674.299804688 c 0
 335.055664062 686.67578125 328.727539062 698.364257812 320 708 c 0
 304.307617188 725.326171875 280.71875 735.27734375 257.375 734.046875 c 0
 234.03125 732.815429688 211.874023438 720.768554688 196.53125 703.131835938 c 0
 181.189453125 685.495117188 172.421875 662.892578125 168.208007812 639.899414062 c 0
 163.994140625 616.90625 164 593.375976562 164 570 c 2
 164 0 l 1
 64 0 l 1
  Spiro
    64 0 v
    64 581 ]
    315 832 o
    448 601 [
    448 562 v
    349 608 v
    346 636 ]
    320 708 o
    164 570 [
    164 0 v
    0 0 z
  EndSpiro
184.577148438 35 m 1
 215.577148438 134 l 1
 236.380859375 116.22265625 262.163085938 104.240234375 289.228515625 100.204101562 c 0
 316.293945312 96.16796875 345.002929688 100.10546875 368.577148438 114 c 0
 379.540039062 120.4609375 389.283203125 129.104492188 396.51953125 139.571289062 c 0
 403.755859375 150.0390625 408.387695312 162.330078125 409.577148438 175 c 0
 410.609375 186.000976562 409.059570312 197.205078125 405.327148438 207.604492188 c 0
 401.594726562 218.004882812 395.731445312 227.580078125 388.577148438 236 c 0
 373.161132812 254.140625 352.231445312 266.643554688 331.09765625 277.6015625 c 0
 309.963867188 288.559570312 288.197265625 298.518554688 268.577148438 312 c 0
 252.797851562 322.841796875 238.45703125 335.9453125 227.2265625 351.450195312 c 0
 215.995117188 366.955078125 207.947265625 384.7734375 203.911132812 403.487304688 c 0
 195.838867188 440.916992188 204.298828125 480.916992188 223.577148438 514 c 0
 250.549804688 560.288085938 297.263671875 594.086914062 349 608 c 1
 448 562 l 1
 420.715820312 549.494140625 393.77734375 535.938476562 369 519 c 0
 350.434570312 506.30859375 332.87890625 490.990234375 322.577148438 471 c 0
 314.385742188 455.104492188 311.623046875 436.181640625 316.577148438 419 c 0
 319.162109375 410.034179688 323.680664062 401.673828125 329.434570312 394.327148438 c 0
 335.188476562 386.981445312 342.130859375 380.624023438 349.577148438 375 c 0
 364.143554688 363.997070312 380.48828125 355.626953125 396.577148438 347 c 0
 419.1953125 334.872070312 441.623046875 321.927734375 460.756835938 304.823242188 c 0
 479.891601562 287.71875 495.604492188 266.6484375 505.577148438 243 c 0
 524.900390625 197.1796875 521.1953125 142.76171875 497.577148438 99 c 0
 481.14453125 68.552734375 455.8359375 43.1484375 426.05859375 25.53125 c 0
 396.282226562 7.9140625 362.119140625 -2.0283203125 327.577148438 -4 c 0
 277.392578125 -6.865234375 226.455078125 7.197265625 184.577148438 35 c 1
  Spiro
    184.577 35 v
    215.577 134 v
    368.577 114 o
    409.577 175 o
    388.577 236 o
    268.577 312 o
    223.577 514 o
    349 608 v
    448 562 v
    369 519 o
    322.577 471 o
    316.577 419 o
    349.577 375 o
    396.577 347 o
    505.577 243 o
    497.577 99 o
    327.577 -4 o
    0 0 z
  EndSpiro
EndSplineSet
EndChar
StartChar: ae
Encoding: 230 230 123
Width: 640
VWidth: 0
InSpiro: 1
Flags: HMW
AnchorPoint: "top" 320 576 basechar 0
LayerCount: 2
Fore
SplineSet
268 328 m 2
 268 358.29296875 270.43359375 388.870117188 280.015625 417.607421875 c 0
 289.596679688 446.345703125 303.985351562 473.286132812 320 499 c 0
 332.075195312 518.389648438 345.586914062 537.216796875 363 552 c 0
 379.474609375 565.986328125 399.615234375 575.88671875 421 579 c 0
 448.401367188 582.989257812 477.08203125 575.547851562 499.71484375 559.594726562 c 0
 522.34765625 543.641601562 538.793945312 519.911132812 548.94140625 494.147460938 c 0
 569.236328125 442.620117188 567 385.379882812 567 330 c 2
 567 238 l 1
 331 238 l 1
 331 338 l 1
 467 338 l 1
 467 352 l 2
 467 365.547851562 467.26953125 379.09375 467.374023438 392.641601562 c 0
 467.477539062 406.189453125 467.2734375 419.862304688 464.282226562 433.076171875 c 0
 461.291992188 446.290039062 455.134765625 459.151367188 444.87109375 467.995117188 c 0
 439.739257812 472.416992188 433.65625 475.760742188 427.118164062 477.53125 c 0
 420.579101562 479.301757812 413.611328125 479.477539062 407 478 c 0
 395.331054688 475.392578125 385.154296875 467.5703125 378.635742188 457.546875 c 0
 372.118164062 447.5234375 369.041992188 435.596679688 367.822265625 423.702148438 c 0
 365.381835938 399.9140625 368 375.913085938 368 352 c 2
 368 220 l 2
 368 207.169921875 368.12109375 194.279296875 370.206054688 181.619140625 c 0
 372.291015625 168.958984375 376.338867188 156.565429688 382.755859375 145.455078125 c 0
 395.591796875 123.235351562 418.0625 107.047851562 443 101 c 0
 459.801757812 96.9248046875 477.592773438 97.146484375 494.364257812 101.345703125 c 0
 511.135742188 105.545898438 526.891601562 113.727539062 540 125 c 1
 572 34 l 1
 533.620117188 6.3916015625 485.03125 -6.8232421875 438 -2 c 0
 410.579101562 0.8115234375 383.756835938 9.6728515625 360.244140625 24.0576171875 c 0
 336.73046875 38.443359375 316.657226562 58.3583984375 301.911132812 81.646484375 c 0
 287.1640625 104.934570312 277.846679688 131.431640625 273.059570312 158.577148438 c 0
 268.271484375 185.72265625 268 213.435546875 268 241 c 2
 268 328 l 2
  Spiro
    268 328 ]
    320 499 o
    363 552 o
    421 579 o
    567 330 [
    567 238 v
    331 238 v
    331 338 v
    467 338 v
    467 352 ]
    407 478 o
    368 352 [
    368 220 ]
    443 101 o
    540 125 v
    572 34 v
    438 -2 o
    268 241 [
    0 0 z
  EndSpiro
77 129 m 0
 71.734375 170.233398438 72.3486328125 212.567382812 82 253 c 0
 89.6875 285.206054688 105.19921875 316.290039062 130.2578125 337.932617188 c 0
 142.787109375 348.75390625 157.405273438 357.055664062 172.91015625 362.861328125 c 0
 188.4140625 368.666015625 204.73046875 371.9375 221 375 c 2
 306 391 l 1
 306 292 l 1
 226 276 l 2
 221.879882812 275.17578125 217.750976562 274.301757812 213.814453125 272.833007812 c 0
 209.876953125 271.365234375 206.149414062 269.313476562 202.881835938 266.670898438 c 0
 196.34765625 261.387695312 191.9140625 253.881835938 189 246 c 0
 184.17578125 232.94921875 182.364257812 219.0078125 180.130859375 205.274414062 c 0
 177.897460938 191.541015625 175.486328125 177.787109375 174.91015625 163.885742188 c 0
 174.333984375 149.984375 176.020507812 135.607421875 182.73046875 123.41796875 c 0
 186.084960938 117.323242188 190.655273438 111.880859375 196.193359375 107.670898438 c 0
 201.732421875 103.4609375 208.2109375 100.520507812 215 99 c 0
 228.692382812 95.93359375 242.98828125 98.7705078125 256.477539062 102.633789062 c 0
 269.966796875 106.497070312 283.370117188 110.66796875 297 114 c 2
 342 125 l 1
 359 28 l 1
 333 21 l 2
 297.353515625 11.4033203125 261.793945312 0.1630859375 224.99609375 -2.7880859375 c 0
 206.59765625 -4.263671875 187.874023438 -3.3076171875 170.083007812 1.6083984375 c 0
 152.291015625 6.5234375 135.583984375 15.50390625 122 28 c 0
 108.147460938 40.7431640625 97.69140625 56.93359375 90.55078125 74.3486328125 c 0
 83.4091796875 91.763671875 79.3837890625 110.329101562 77 129 c 0
  Spiro
    77 129 o
    82 253 o
    221 375 [
    306 391 v
    306 292 v
    226 276 ]
    189 246 o
    215 99 o
    297 114 [
    342 125 v
    359 28 v
    333 21 ]
    122 28 o
    0 0 z
  EndSpiro
126 450 m 1
 105 557 l 1
 151 567 l 2
 180.71875 573.4609375 210.645507812 581.88671875 241 580 c 0
 261.5625 578.721679688 281.807617188 571.94921875 298.6953125 560.149414062 c 0
 315.583984375 548.350585938 329.00390625 532.014648438 339 514 c 0
 351.979492188 490.608398438 359.536132812 464.487304688 363.603515625 438.046875 c 0
 367.670898438 411.607421875 368 384.750976562 368 358 c 2
 368 316 l 1
 268 316 l 1
 268 352 l 2
 268 370.282226562 268.77734375 388.68359375 266.03515625 406.758789062 c 0
 264.6640625 415.795898438 262.247070312 424.732421875 258.153320312 432.905273438 c 0
 254.059570312 441.078125 248.24609375 448.427734375 241 454 c 0
 234.530273438 458.975585938 226.981445312 462.5 219.065429688 464.483398438 c 0
 211.1484375 466.466796875 202.899414062 466.9375 194.755859375 466.39453125 c 0
 178.46875 465.30859375 162.6953125 460.484375 147 456 c 2
 126 450 l 1
  Spiro
    126 450 v
    105 557 v
    151 567 ]
    241 580 o
    339 514 o
    368 358 [
    368 316 v
    268 316 v
    268 352 ]
    241 454 o
    147 456 [
    0 0 z
  EndSpiro
EndSplineSet
EndChar
StartChar: dotlessi
Encoding: 257 305 101
Width: 384
VWidth: 0
InSpiro: 1
Flags: HMW
AnchorPoint: "top" 192 576 basechar 0
LayerCount: 2
Fore
SplineSet
92 576 m 1
 242 576 l 1
 242 476 l 1
 92 476 l 1
 92 576 l 1
  Spiro
    92 576 v
    242 576 v
    242 476 v
    92 476 v
    0 0 z
  EndSpiro
92 100 m 1
 292 100 l 1
 292 0 l 1
 92 0 l 1
 92 100 l 1
  Spiro
    92 100 v
    292 100 v
    292 0 v
    92 0 v
    0 0 z
  EndSpiro
142 576 m 1
 242 576 l 1
 242 0 l 1
 142 0 l 1
 142 576 l 1
  Spiro
    142 576 v
    242 576 v
    242 0 v
    142 0 v
    0 0 z
  EndSpiro
EndSplineSet
EndChar
StartChar: OE
Encoding: 262 338 125
Width: 576
VWidth: 0
InSpiro: 1
Flags: HMW
LayerCount: 2
Fore
SplineSet
224 672 m 0
 233.2578125 671.7734375 242.310546875 668.024414062 249.31640625 661.967773438 c 0
 256.322265625 655.912109375 261.288085938 647.7265625 264.387695312 639 c 0
 270.584960938 621.545898438 270 602.521484375 270 584 c 2
 270 184 l 2
 270 165.478515625 270.584960938 146.454101562 264.387695312 129 c 0
 261.288085938 120.2734375 256.322265625 112.087890625 249.31640625 106.032226562 c 0
 242.310546875 99.9755859375 233.2578125 96.2265625 224 96 c 0
 214.58203125 95.76953125 205.196289062 99.203125 197.87109375 105.126953125 c 0
 190.545898438 111.051757812 185.287109375 119.275390625 181.99609375 128.103515625 c 0
 175.415039062 145.758789062 176 165.157226562 176 184 c 2
 176 584 l 2
 176 602.842773438 175.415039062 622.241210938 181.99609375 639.896484375 c 0
 185.287109375 648.724609375 190.545898438 656.948242188 197.87109375 662.873046875 c 0
 205.196289062 668.796875 214.58203125 672.23046875 224 672 c 0
  Spiro
    224 672 o
    270 584 [
    270 184 ]
    224 96 o
    176 184 [
    176 584 ]
    0 0 z
  EndSpiro
76 184 m 2
 76 161.368164062 76.283203125 138.58203125 80.736328125 116.392578125 c 0
 85.189453125 94.203125 93.8134765625 72.7236328125 107.080078125 54.3876953125 c 0
 120.34765625 36.052734375 138.124023438 21.0078125 158.405273438 10.9658203125 c 0
 178.686523438 0.9228515625 201.369140625 -4.1650390625 224 -4 c 0
 246.459960938 -3.8359375 268.893554688 1.501953125 288.911132812 11.689453125 c 0
 308.928710938 21.8759765625 326.426757812 36.9560546875 339.47265625 55.240234375 c 0
 352.517578125 73.5234375 360.982421875 94.8671875 365.352539062 116.8984375 c 0
 369.723632812 138.928710938 370 161.540039062 370 184 c 2
 370 584 l 2
 370 606.459960938 369.723632812 629.071289062 365.352539062 651.1015625 c 0
 360.982421875 673.1328125 352.517578125 694.4765625 339.47265625 712.759765625 c 0
 326.426757812 731.043945312 308.928710938 746.124023438 288.911132812 756.310546875 c 0
 268.893554688 766.498046875 246.459960938 771.8359375 224 772 c 0
 201.369140625 772.165039062 178.686523438 767.077148438 158.405273438 757.034179688 c 0
 138.124023438 746.9921875 120.34765625 731.947265625 107.080078125 713.612304688 c 0
 93.8134765625 695.276367188 85.189453125 673.796875 80.736328125 651.607421875 c 0
 76.283203125 629.41796875 76 606.631835938 76 584 c 2
 76 184 l 2
  Spiro
    76 184 ]
    224 -4 o
    370 184 [
    370 584 ]
    224 772 o
    76 584 [
    0 0 z
  EndSpiro
270 0 m 1
 540 0 l 1
 540 100 l 1
 270 100 l 1
 270 0 l 1
  Spiro
    270 0 v
    540 0 v
    540 100 v
    270 100 v
    0 0 z
  EndSpiro
270 656 m 1
 540 656 l 1
 540 756 l 1
 270 756 l 1
 270 656 l 1
  Spiro
    270 656 v
    540 656 v
    540 756 v
    270 756 v
    0 0 z
  EndSpiro
270 384 m 1
 487 384 l 1
 487 484 l 1
 270 484 l 1
 270 384 l 1
  Spiro
    270 384 v
    487 384 v
    487 484 v
    270 484 v
    0 0 z
  EndSpiro
270 756 m 1
 270 0 l 1
 370 0 l 1
 370 756 l 1
 270 756 l 1
  Spiro
    270 756 v
    270 0 v
    370 0 v
    370 756 v
    0 0 z
  EndSpiro
EndSplineSet
EndChar
StartChar: oe
Encoding: 261 339 124
Width: 576
VWidth: 0
InSpiro: 1
Flags: HMW
AnchorPoint: "top" 320 576 basechar 0
LayerCount: 2
Fore
SplineSet
224 480 m 0
 214.58203125 480.23046875 205.196289062 476.796875 197.87109375 470.873046875 c 0
 190.545898438 464.948242188 185.287109375 456.724609375 181.99609375 447.896484375 c 0
 175.415039062 430.241210938 176 410.842773438 176 392 c 2
 176 184 l 2
 176 165.157226562 175.415039062 145.758789062 181.99609375 128.103515625 c 0
 185.287109375 119.275390625 190.545898438 111.051757812 197.87109375 105.126953125 c 0
 205.196289062 99.203125 214.58203125 95.76953125 224 96 c 0
 233.2578125 96.2265625 242.310546875 99.9755859375 249.31640625 106.032226562 c 0
 256.322265625 112.087890625 261.288085938 120.2734375 264.387695312 129 c 0
 270.584960938 146.454101562 270 165.478515625 270 184 c 2
 270 392 l 2
 270 410.521484375 270.584960938 429.545898438 264.387695312 447 c 0
 261.288085938 455.7265625 256.322265625 463.912109375 249.31640625 469.967773438 c 0
 242.310546875 476.024414062 233.2578125 479.7734375 224 480 c 0
  Spiro
    224 480 o
    176 392 [
    176 184 ]
    224 96 o
    270 184 [
    270 392 ]
    0 0 z
  EndSpiro
76 392 m 2
 76 414.631835938 76.283203125 437.41796875 80.736328125 459.607421875 c 0
 85.189453125 481.796875 93.8134765625 503.276367188 107.080078125 521.612304688 c 0
 120.34765625 539.947265625 138.124023438 554.9921875 158.405273438 565.034179688 c 0
 178.686523438 575.077148438 201.369140625 580.165039062 224 580 c 0
 246.459960938 579.8359375 268.893554688 574.498046875 288.911132812 564.310546875 c 0
 308.928710938 554.124023438 326.426757812 539.043945312 339.47265625 520.759765625 c 0
 352.517578125 502.4765625 360.982421875 481.1328125 365.352539062 459.1015625 c 0
 369.723632812 437.071289062 370 414.459960938 370 392 c 2
 370 184 l 2
 370 161.540039062 369.723632812 138.928710938 365.352539062 116.8984375 c 0
 360.982421875 94.8671875 352.517578125 73.5234375 339.47265625 55.240234375 c 0
 326.426757812 36.9560546875 308.928710938 21.8759765625 288.911132812 11.689453125 c 0
 268.893554688 1.501953125 246.459960938 -3.8359375 224 -4 c 0
 201.369140625 -4.1650390625 178.686523438 0.9228515625 158.405273438 10.9658203125 c 0
 138.124023438 21.0078125 120.34765625 36.052734375 107.080078125 54.3876953125 c 0
 93.8134765625 72.7236328125 85.189453125 94.203125 80.736328125 116.392578125 c 0
 76.283203125 138.58203125 76 161.368164062 76 184 c 2
 76 392 l 2
  Spiro
    76 392 ]
    224 580 o
    370 392 [
    370 184 ]
    224 -4 o
    76 184 [
    0 0 z
  EndSpiro
272 330 m 2
 272 383.94921875 271.788085938 439.698242188 292.995117188 489.3046875 c 0
 303.598632812 514.108398438 319.708007812 536.834960938 341.078125 553.295898438 c 0
 362.448242188 569.756835938 389.028320312 579.573242188 416 580 c 0
 443.297851562 580.432617188 470.501953125 571.224609375 492.486328125 555.036132812 c 0
 514.470703125 538.846679688 531.162109375 516.077148438 542.163085938 491.090820312 c 0
 564.166992188 441.1171875 564 384.602539062 564 330 c 2
 564 238 l 1
 366 238 l 1
 366 338 l 1
 464 338 l 1
 464 389 l 2
 464 408.208984375 464.5859375 427.950195312 458.078125 446.022460938 c 0
 454.82421875 455.05859375 449.625 463.520507812 442.3203125 469.755859375 c 0
 435.015625 475.9921875 425.602539062 479.819335938 416 480 c 0
 405.260742188 480.202148438 394.633789062 475.793945312 386.735351562 468.513671875 c 0
 378.837890625 461.234375 373.633789062 451.376953125 370.633789062 441.063476562 c 0
 364.6328125 420.436523438 366 398.482421875 366 377 c 2
 366 220 l 2
 366 206.275390625 366.157226562 192.470703125 368.655273438 178.975585938 c 0
 371.153320312 165.48046875 375.987304688 152.353515625 383.473632812 140.8515625 c 0
 390.959960938 129.348632812 401.0234375 119.548828125 412.665039062 112.28125 c 0
 424.307617188 105.013671875 437.461914062 100.251953125 451 98 c 0
 482.153320312 92.818359375 515.116210938 100.904296875 541 119 c 1
 567 21 l 1
 529.6484375 -0.04296875 485.571289062 -9.0615234375 443 -4 c 0
 415.478515625 -0.7275390625 388.622070312 8.3984375 365.03125 22.9462890625 c 0
 341.44140625 37.4931640625 321.247070312 57.4794921875 306.36328125 80.859375 c 0
 291.479492188 104.23828125 282.020507812 130.848632812 277.153320312 158.1328125 c 0
 272.28515625 185.416992188 272 213.28515625 272 241 c 2
 272 330 l 2
  Spiro
    272 330 ]
    416 580 o
    564 330 [
    564 238 v
    366 238 v
    366 338 v
    464 338 v
    464 389 ]
    416 480 o
    366 377 [
    366 220 ]
    451 98 o
    541 119 v
    567 21 v
    443 -4 o
    272 241 [
    0 0 z
  EndSpiro
EndSplineSet
EndChar
StartChar: Euro
Encoding: 276 8364 212
Width: 512
VWidth: 0
Flags: W
HStem: -4 100<197.086 313.28> 277 50<40 344> 377 50<40 344> 608 100<199.538 313.405>
VStem: 64 100<132.688 567.516> 346.014 95.4852<130.639 158.402 545.605 572.37>
AnchorPoint: "bottom" 320 0 basechar 0
LayerCount: 2
Fore
SplineSet
441.499576425 156 m 5
 421.790391583 63.3290911866 357.747342498 -4 256 -4 c 11
 132 -4 64 96 64 220 c 25
 64 364 64 381 64 484 c 25
 64 599 141 708 256 708 c 19
 349.218117207 708 417.467957644 636.380465977 439.977820109 548 c 1
 345.720333531 516 l 1
 338.328976026 565.677658867 312.182093542 608 256 608 c 3
 188 608 164 544 164 484 c 25
 164 381 164 362 164 220 c 27
 164 152 188 96 256 96 c 16
 312.953805933 96 339.041611769 135.284002391 346.014327797 188 c 1
 441.499576425 156 l 5
344 377 m 0
 8 377 l 0
 40 427 l 0
 376 427 l 0
 344 377 l 0
  Spiro
    344 377 v
    8 377 v
    40 427 v
    376 427 v
    0 0 z
  EndSpiro
344 277 m 0
 8 277 l 0
 40 327 l 0
 376 327 l 0
 344 277 l 0
  Spiro
    344 277 v
    8 277 v
    40 327 v
    376 327 v
    0 0 z
  EndSpiro
EndSplineSet
EndChar
